<mxfile host="app.diagrams.net" agent="Mozilla/5.0 (X11; Linux x86_64) AppleWebKit/537.36 (KHTML, like Gecko) Chrome/135.0.0.0 Safari/537.36" border="50" scale="3" compressed="false" locked="false" version="26.2.14">
  <diagram name="Blank" id="YmL12bMKpDGza6XwsDPr">
    <mxGraphModel dx="3577" dy="1642" grid="0" gridSize="10" guides="1" tooltips="1" connect="1" arrows="1" fold="1" page="0" pageScale="1" pageWidth="827" pageHeight="1169" background="none" math="1" shadow="0">
      <root>
        <mxCell id="X5NqExCQtvZxIxQ7pmgY-0" />
        <mxCell id="1" parent="X5NqExCQtvZxIxQ7pmgY-0" />
        <mxCell id="Ltpiq9K8EVX7JEzlwt5r-1" value="SUBJEKT" style="rounded=0;whiteSpace=wrap;html=1;" vertex="1" parent="1">
          <mxGeometry x="-108" y="21" width="120" height="60" as="geometry" />
        </mxCell>
        <mxCell id="Ltpiq9K8EVX7JEzlwt5r-2" value="SPRÁVCE" style="rounded=0;whiteSpace=wrap;html=1;" vertex="1" parent="1">
          <mxGeometry x="-108" y="207" width="120" height="60" as="geometry" />
        </mxCell>
        <mxCell id="Ltpiq9K8EVX7JEzlwt5r-3" value="SUBJEKT ÚDAJŮ" style="rounded=0;whiteSpace=wrap;html=1;" vertex="1" parent="1">
          <mxGeometry x="610" y="207" width="120" height="60" as="geometry" />
        </mxCell>
        <mxCell id="Ltpiq9K8EVX7JEzlwt5r-4" value="" style="endArrow=classic;html=1;rounded=0;fontSize=12;startSize=8;endSize=8;curved=1;" edge="1" parent="1" source="Ltpiq9K8EVX7JEzlwt5r-2" target="Ltpiq9K8EVX7JEzlwt5r-1">
          <mxGeometry width="50" height="50" relative="1" as="geometry">
            <mxPoint x="389" y="661" as="sourcePoint" />
            <mxPoint x="439" y="611" as="targetPoint" />
          </mxGeometry>
        </mxCell>
        <mxCell id="Ltpiq9K8EVX7JEzlwt5r-5" value="" style="endArrow=classic;html=1;rounded=0;fontSize=12;startSize=8;endSize=8;curved=1;" edge="1" parent="1" source="Ltpiq9K8EVX7JEzlwt5r-3" target="Ltpiq9K8EVX7JEzlwt5r-265">
          <mxGeometry width="50" height="50" relative="1" as="geometry">
            <mxPoint x="389" y="661" as="sourcePoint" />
            <mxPoint x="439" y="611" as="targetPoint" />
          </mxGeometry>
        </mxCell>
        <mxCell id="Ltpiq9K8EVX7JEzlwt5r-6" value="SDĚLENÍ" style="rounded=0;whiteSpace=wrap;html=1;" vertex="1" parent="1">
          <mxGeometry x="167" y="580" width="120" height="60" as="geometry" />
        </mxCell>
        <mxCell id="Ltpiq9K8EVX7JEzlwt5r-9" value="" style="endArrow=none;html=1;rounded=0;fontSize=12;startSize=8;endSize=8;curved=1;" edge="1" parent="1" source="Ltpiq9K8EVX7JEzlwt5r-6" target="Ltpiq9K8EVX7JEzlwt5r-3">
          <mxGeometry width="50" height="50" relative="1" as="geometry">
            <mxPoint x="335" y="415" as="sourcePoint" />
            <mxPoint x="385" y="365" as="targetPoint" />
          </mxGeometry>
        </mxCell>
        <mxCell id="Ltpiq9K8EVX7JEzlwt5r-10" value="komu" style="edgeLabel;html=1;align=center;verticalAlign=middle;resizable=0;points=[];fontSize=12;" vertex="1" connectable="0" parent="Ltpiq9K8EVX7JEzlwt5r-9">
          <mxGeometry x="0.2717" y="1" relative="1" as="geometry">
            <mxPoint x="-201" y="174" as="offset" />
          </mxGeometry>
        </mxCell>
        <mxCell id="Ltpiq9K8EVX7JEzlwt5r-11" value="ZPRACOVÁNÍ" style="rounded=0;whiteSpace=wrap;html=1;" vertex="1" parent="1">
          <mxGeometry x="407" y="580" width="120" height="60" as="geometry" />
        </mxCell>
        <mxCell id="Ltpiq9K8EVX7JEzlwt5r-12" value="" style="endArrow=none;html=1;rounded=0;fontSize=12;startSize=8;endSize=8;curved=1;" edge="1" parent="1" source="Ltpiq9K8EVX7JEzlwt5r-11" target="Ltpiq9K8EVX7JEzlwt5r-6">
          <mxGeometry width="50" height="50" relative="1" as="geometry">
            <mxPoint x="335" y="655" as="sourcePoint" />
            <mxPoint x="385" y="605" as="targetPoint" />
          </mxGeometry>
        </mxCell>
        <mxCell id="Ltpiq9K8EVX7JEzlwt5r-13" value="o" style="edgeLabel;html=1;align=center;verticalAlign=middle;resizable=0;points=[];fontSize=12;" vertex="1" connectable="0" parent="Ltpiq9K8EVX7JEzlwt5r-12">
          <mxGeometry x="-0.4177" y="-1" relative="1" as="geometry">
            <mxPoint x="-66" y="1" as="offset" />
          </mxGeometry>
        </mxCell>
        <mxCell id="Ltpiq9K8EVX7JEzlwt5r-14" value="PÍSEMNÉ" style="rounded=0;whiteSpace=wrap;html=1;" vertex="1" parent="1">
          <mxGeometry x="-108" y="520" width="120" height="60" as="geometry" />
        </mxCell>
        <mxCell id="Ltpiq9K8EVX7JEzlwt5r-15" value="ÚSTNÍ" style="rounded=0;whiteSpace=wrap;html=1;" vertex="1" parent="1">
          <mxGeometry x="-108" y="600" width="120" height="60" as="geometry" />
        </mxCell>
        <mxCell id="Ltpiq9K8EVX7JEzlwt5r-16" value="ELEKTRONICKÉ" style="rounded=0;whiteSpace=wrap;html=1;" vertex="1" parent="1">
          <mxGeometry x="-108" y="679" width="120" height="60" as="geometry" />
        </mxCell>
        <mxCell id="Ltpiq9K8EVX7JEzlwt5r-17" value="" style="endArrow=classic;html=1;rounded=0;fontSize=12;startSize=8;endSize=8;curved=1;" edge="1" parent="1" source="Ltpiq9K8EVX7JEzlwt5r-14" target="Ltpiq9K8EVX7JEzlwt5r-6">
          <mxGeometry width="50" height="50" relative="1" as="geometry">
            <mxPoint x="88" y="694" as="sourcePoint" />
            <mxPoint x="138" y="644" as="targetPoint" />
          </mxGeometry>
        </mxCell>
        <mxCell id="Ltpiq9K8EVX7JEzlwt5r-26" value="or" style="edgeLabel;html=1;align=center;verticalAlign=middle;resizable=0;points=[];fontSize=12;" vertex="1" connectable="0" parent="Ltpiq9K8EVX7JEzlwt5r-17">
          <mxGeometry x="-0.5846" y="-1" relative="1" as="geometry">
            <mxPoint as="offset" />
          </mxGeometry>
        </mxCell>
        <mxCell id="Ltpiq9K8EVX7JEzlwt5r-18" value="" style="endArrow=classic;html=1;rounded=0;fontSize=12;startSize=8;endSize=8;curved=1;" edge="1" parent="1" source="Ltpiq9K8EVX7JEzlwt5r-15" target="Ltpiq9K8EVX7JEzlwt5r-6">
          <mxGeometry width="50" height="50" relative="1" as="geometry">
            <mxPoint x="88" y="694" as="sourcePoint" />
            <mxPoint x="138" y="644" as="targetPoint" />
          </mxGeometry>
        </mxCell>
        <mxCell id="Ltpiq9K8EVX7JEzlwt5r-27" value="or" style="edgeLabel;html=1;align=center;verticalAlign=middle;resizable=0;points=[];fontSize=12;" vertex="1" connectable="0" parent="Ltpiq9K8EVX7JEzlwt5r-18">
          <mxGeometry x="0.2137" y="1" relative="1" as="geometry">
            <mxPoint as="offset" />
          </mxGeometry>
        </mxCell>
        <mxCell id="Ltpiq9K8EVX7JEzlwt5r-19" value="" style="endArrow=classic;html=1;rounded=0;fontSize=12;startSize=8;endSize=8;curved=1;" edge="1" parent="1" source="Ltpiq9K8EVX7JEzlwt5r-16" target="Ltpiq9K8EVX7JEzlwt5r-6">
          <mxGeometry width="50" height="50" relative="1" as="geometry">
            <mxPoint x="88" y="694" as="sourcePoint" />
            <mxPoint x="138" y="644" as="targetPoint" />
          </mxGeometry>
        </mxCell>
        <mxCell id="Ltpiq9K8EVX7JEzlwt5r-28" value="or" style="edgeLabel;html=1;align=center;verticalAlign=middle;resizable=0;points=[];fontSize=12;" vertex="1" connectable="0" parent="Ltpiq9K8EVX7JEzlwt5r-19">
          <mxGeometry x="-0.014" y="-4" relative="1" as="geometry">
            <mxPoint as="offset" />
          </mxGeometry>
        </mxCell>
        <mxCell id="Ltpiq9K8EVX7JEzlwt5r-20" value="ZPŮSOB" style="rounded=0;whiteSpace=wrap;html=1;" vertex="1" parent="1">
          <mxGeometry x="167" y="723" width="120" height="60" as="geometry" />
        </mxCell>
        <mxCell id="Ltpiq9K8EVX7JEzlwt5r-21" value="" style="endArrow=none;html=1;rounded=0;fontSize=12;startSize=8;endSize=8;curved=1;" edge="1" parent="1" source="Ltpiq9K8EVX7JEzlwt5r-20" target="Ltpiq9K8EVX7JEzlwt5r-6">
          <mxGeometry width="50" height="50" relative="1" as="geometry">
            <mxPoint x="269" y="686" as="sourcePoint" />
            <mxPoint x="319" y="636" as="targetPoint" />
          </mxGeometry>
        </mxCell>
        <mxCell id="Ltpiq9K8EVX7JEzlwt5r-22" value="čeho" style="edgeLabel;html=1;align=center;verticalAlign=middle;resizable=0;points=[];fontSize=12;" vertex="1" connectable="0" parent="Ltpiq9K8EVX7JEzlwt5r-21">
          <mxGeometry x="-0.3012" relative="1" as="geometry">
            <mxPoint x="-3" y="11" as="offset" />
          </mxGeometry>
        </mxCell>
        <mxCell id="Ltpiq9K8EVX7JEzlwt5r-23" value="STRUČNÝ" style="rounded=0;whiteSpace=wrap;html=1;" vertex="1" parent="1">
          <mxGeometry x="161" y="832" width="120" height="60" as="geometry" />
        </mxCell>
        <mxCell id="Ltpiq9K8EVX7JEzlwt5r-24" value="TRANSPARENTNÍ" style="rounded=0;whiteSpace=wrap;html=1;" vertex="1" parent="1">
          <mxGeometry x="24" y="832" width="120" height="60" as="geometry" />
        </mxCell>
        <mxCell id="Ltpiq9K8EVX7JEzlwt5r-25" value="SROZUMITELNÝ" style="rounded=0;whiteSpace=wrap;html=1;" vertex="1" parent="1">
          <mxGeometry x="307" y="832" width="120" height="60" as="geometry" />
        </mxCell>
        <mxCell id="Ltpiq9K8EVX7JEzlwt5r-29" value="" style="endArrow=classic;html=1;rounded=0;fontSize=12;startSize=8;endSize=8;curved=1;" edge="1" parent="1" source="Ltpiq9K8EVX7JEzlwt5r-24" target="Ltpiq9K8EVX7JEzlwt5r-20">
          <mxGeometry width="50" height="50" relative="1" as="geometry">
            <mxPoint x="269" y="686" as="sourcePoint" />
            <mxPoint x="319" y="636" as="targetPoint" />
          </mxGeometry>
        </mxCell>
        <mxCell id="Ltpiq9K8EVX7JEzlwt5r-32" value="and" style="edgeLabel;html=1;align=center;verticalAlign=middle;resizable=0;points=[];fontSize=12;" vertex="1" connectable="0" parent="Ltpiq9K8EVX7JEzlwt5r-29">
          <mxGeometry x="0.1898" y="-4" relative="1" as="geometry">
            <mxPoint as="offset" />
          </mxGeometry>
        </mxCell>
        <mxCell id="Ltpiq9K8EVX7JEzlwt5r-30" value="" style="endArrow=classic;html=1;rounded=0;fontSize=12;startSize=8;endSize=8;curved=1;" edge="1" parent="1" source="Ltpiq9K8EVX7JEzlwt5r-23" target="Ltpiq9K8EVX7JEzlwt5r-20">
          <mxGeometry width="50" height="50" relative="1" as="geometry">
            <mxPoint x="269" y="686" as="sourcePoint" />
            <mxPoint x="319" y="636" as="targetPoint" />
          </mxGeometry>
        </mxCell>
        <mxCell id="Ltpiq9K8EVX7JEzlwt5r-33" value="and" style="edgeLabel;html=1;align=center;verticalAlign=middle;resizable=0;points=[];fontSize=12;" vertex="1" connectable="0" parent="Ltpiq9K8EVX7JEzlwt5r-30">
          <mxGeometry x="0.3437" y="1" relative="1" as="geometry">
            <mxPoint as="offset" />
          </mxGeometry>
        </mxCell>
        <mxCell id="Ltpiq9K8EVX7JEzlwt5r-31" value="" style="endArrow=classic;html=1;rounded=0;fontSize=12;startSize=8;endSize=8;curved=1;" edge="1" parent="1" source="Ltpiq9K8EVX7JEzlwt5r-25" target="Ltpiq9K8EVX7JEzlwt5r-20">
          <mxGeometry width="50" height="50" relative="1" as="geometry">
            <mxPoint x="269" y="686" as="sourcePoint" />
            <mxPoint x="319" y="636" as="targetPoint" />
          </mxGeometry>
        </mxCell>
        <mxCell id="Ltpiq9K8EVX7JEzlwt5r-34" value="and" style="edgeLabel;html=1;align=center;verticalAlign=middle;resizable=0;points=[];fontSize=12;" vertex="1" connectable="0" parent="Ltpiq9K8EVX7JEzlwt5r-31">
          <mxGeometry x="-0.4783" y="-2" relative="1" as="geometry">
            <mxPoint as="offset" />
          </mxGeometry>
        </mxCell>
        <mxCell id="Ltpiq9K8EVX7JEzlwt5r-35" value="SNADNO PŘÍSTUPNÝ" style="rounded=0;whiteSpace=wrap;html=1;" vertex="1" parent="1">
          <mxGeometry x="-108" y="832" width="120" height="60" as="geometry" />
        </mxCell>
        <mxCell id="Ltpiq9K8EVX7JEzlwt5r-36" value="" style="endArrow=classic;html=1;rounded=0;fontSize=12;startSize=8;endSize=8;curved=1;" edge="1" parent="1" source="Ltpiq9K8EVX7JEzlwt5r-35" target="Ltpiq9K8EVX7JEzlwt5r-20">
          <mxGeometry width="50" height="50" relative="1" as="geometry">
            <mxPoint x="269" y="686" as="sourcePoint" />
            <mxPoint x="319" y="636" as="targetPoint" />
          </mxGeometry>
        </mxCell>
        <mxCell id="Ltpiq9K8EVX7JEzlwt5r-37" value="and" style="edgeLabel;html=1;align=center;verticalAlign=middle;resizable=0;points=[];fontSize=12;" vertex="1" connectable="0" parent="Ltpiq9K8EVX7JEzlwt5r-36">
          <mxGeometry x="0.3842" y="1" relative="1" as="geometry">
            <mxPoint as="offset" />
          </mxGeometry>
        </mxCell>
        <mxCell id="Ltpiq9K8EVX7JEzlwt5r-38" value="JAZYKOVÉ PROSTŘEDKY" style="rounded=0;whiteSpace=wrap;html=1;" vertex="1" parent="1">
          <mxGeometry x="479" y="723" width="120" height="60" as="geometry" />
        </mxCell>
        <mxCell id="Ltpiq9K8EVX7JEzlwt5r-39" value="" style="endArrow=none;html=1;rounded=0;fontSize=12;startSize=8;endSize=8;curved=1;" edge="1" parent="1" source="Ltpiq9K8EVX7JEzlwt5r-6" target="Ltpiq9K8EVX7JEzlwt5r-38">
          <mxGeometry width="50" height="50" relative="1" as="geometry">
            <mxPoint x="240" y="710" as="sourcePoint" />
            <mxPoint x="290" y="660" as="targetPoint" />
          </mxGeometry>
        </mxCell>
        <mxCell id="Ltpiq9K8EVX7JEzlwt5r-40" value="za použití" style="edgeLabel;html=1;align=center;verticalAlign=middle;resizable=0;points=[];fontSize=12;" vertex="1" connectable="0" parent="Ltpiq9K8EVX7JEzlwt5r-39">
          <mxGeometry x="0.3213" y="-5" relative="1" as="geometry">
            <mxPoint x="-89" y="-50" as="offset" />
          </mxGeometry>
        </mxCell>
        <mxCell id="Ltpiq9K8EVX7JEzlwt5r-41" value="JASNÉ" style="rounded=0;whiteSpace=wrap;html=1;" vertex="1" parent="1">
          <mxGeometry x="479" y="832" width="120" height="60" as="geometry" />
        </mxCell>
        <mxCell id="Ltpiq9K8EVX7JEzlwt5r-42" value="JEDNODUCHÉ" style="rounded=0;whiteSpace=wrap;html=1;" vertex="1" parent="1">
          <mxGeometry x="610" y="832" width="120" height="60" as="geometry" />
        </mxCell>
        <mxCell id="Ltpiq9K8EVX7JEzlwt5r-43" value="" style="endArrow=classic;html=1;rounded=0;fontSize=12;startSize=8;endSize=8;curved=1;" edge="1" parent="1" source="Ltpiq9K8EVX7JEzlwt5r-41" target="Ltpiq9K8EVX7JEzlwt5r-38">
          <mxGeometry width="50" height="50" relative="1" as="geometry">
            <mxPoint x="240" y="710" as="sourcePoint" />
            <mxPoint x="290" y="660" as="targetPoint" />
          </mxGeometry>
        </mxCell>
        <mxCell id="Ltpiq9K8EVX7JEzlwt5r-45" value="and" style="edgeLabel;html=1;align=center;verticalAlign=middle;resizable=0;points=[];fontSize=12;" vertex="1" connectable="0" parent="Ltpiq9K8EVX7JEzlwt5r-43">
          <mxGeometry x="-0.0698" y="-4" relative="1" as="geometry">
            <mxPoint as="offset" />
          </mxGeometry>
        </mxCell>
        <mxCell id="Ltpiq9K8EVX7JEzlwt5r-44" value="" style="endArrow=classic;html=1;rounded=0;fontSize=12;startSize=8;endSize=8;curved=1;" edge="1" parent="1" source="Ltpiq9K8EVX7JEzlwt5r-42" target="Ltpiq9K8EVX7JEzlwt5r-38">
          <mxGeometry width="50" height="50" relative="1" as="geometry">
            <mxPoint x="240" y="710" as="sourcePoint" />
            <mxPoint x="290" y="660" as="targetPoint" />
          </mxGeometry>
        </mxCell>
        <mxCell id="Ltpiq9K8EVX7JEzlwt5r-46" value="and" style="edgeLabel;html=1;align=center;verticalAlign=middle;resizable=0;points=[];fontSize=12;" vertex="1" connectable="0" parent="Ltpiq9K8EVX7JEzlwt5r-44">
          <mxGeometry x="0.1016" y="-1" relative="1" as="geometry">
            <mxPoint as="offset" />
          </mxGeometry>
        </mxCell>
        <mxCell id="Ltpiq9K8EVX7JEzlwt5r-47" value="OPATŘENÍ&amp;nbsp;" style="rounded=0;whiteSpace=wrap;html=1;" vertex="1" parent="1">
          <mxGeometry x="-108" y="399" width="120" height="60" as="geometry" />
        </mxCell>
        <mxCell id="Ltpiq9K8EVX7JEzlwt5r-51" value="" style="endArrow=none;html=1;rounded=0;fontSize=12;startSize=8;endSize=8;curved=1;" edge="1" parent="1" source="Ltpiq9K8EVX7JEzlwt5r-47" target="Ltpiq9K8EVX7JEzlwt5r-6">
          <mxGeometry width="50" height="50" relative="1" as="geometry">
            <mxPoint x="253" y="512" as="sourcePoint" />
            <mxPoint x="303" y="462" as="targetPoint" />
          </mxGeometry>
        </mxCell>
        <mxCell id="Ltpiq9K8EVX7JEzlwt5r-52" value="aby poskytl" style="edgeLabel;html=1;align=center;verticalAlign=middle;resizable=0;points=[];fontSize=12;" vertex="1" connectable="0" parent="Ltpiq9K8EVX7JEzlwt5r-51">
          <mxGeometry x="0.3333" y="-4" relative="1" as="geometry">
            <mxPoint x="-89" y="-66" as="offset" />
          </mxGeometry>
        </mxCell>
        <mxCell id="Ltpiq9K8EVX7JEzlwt5r-53" value="ÚDAJE" style="rounded=0;whiteSpace=wrap;html=1;" vertex="1" parent="1">
          <mxGeometry x="610" y="580" width="120" height="60" as="geometry" />
        </mxCell>
        <mxCell id="Ltpiq9K8EVX7JEzlwt5r-54" value="" style="endArrow=none;html=1;rounded=0;fontSize=12;startSize=8;endSize=8;curved=1;" edge="1" parent="1" source="Ltpiq9K8EVX7JEzlwt5r-53" target="Ltpiq9K8EVX7JEzlwt5r-11">
          <mxGeometry width="50" height="50" relative="1" as="geometry">
            <mxPoint x="446" y="660" as="sourcePoint" />
            <mxPoint x="496" y="610" as="targetPoint" />
          </mxGeometry>
        </mxCell>
        <mxCell id="Ltpiq9K8EVX7JEzlwt5r-55" value="čeho" style="edgeLabel;html=1;align=center;verticalAlign=middle;resizable=0;points=[];fontSize=12;" vertex="1" connectable="0" parent="Ltpiq9K8EVX7JEzlwt5r-54">
          <mxGeometry x="-0.525" y="1" relative="1" as="geometry">
            <mxPoint x="-40" y="-3" as="offset" />
          </mxGeometry>
        </mxCell>
        <mxCell id="Ltpiq9K8EVX7JEzlwt5r-56" value="" style="endArrow=none;html=1;rounded=0;fontSize=12;startSize=8;endSize=8;curved=1;" edge="1" parent="1" source="Ltpiq9K8EVX7JEzlwt5r-3" target="Ltpiq9K8EVX7JEzlwt5r-53">
          <mxGeometry width="50" height="50" relative="1" as="geometry">
            <mxPoint x="554" y="660" as="sourcePoint" />
            <mxPoint x="604" y="610" as="targetPoint" />
          </mxGeometry>
        </mxCell>
        <mxCell id="Ltpiq9K8EVX7JEzlwt5r-58" value="koho" style="edgeLabel;html=1;align=center;verticalAlign=middle;resizable=0;points=[];fontSize=12;" vertex="1" connectable="0" parent="Ltpiq9K8EVX7JEzlwt5r-56">
          <mxGeometry x="0.2568" y="1" relative="1" as="geometry">
            <mxPoint x="-1" y="91" as="offset" />
          </mxGeometry>
        </mxCell>
        <mxCell id="Ltpiq9K8EVX7JEzlwt5r-59" value="DATA" style="rounded=0;whiteSpace=wrap;html=1;" vertex="1" parent="1">
          <mxGeometry x="167" y="207" width="120" height="60" as="geometry" />
        </mxCell>
        <mxCell id="Ltpiq9K8EVX7JEzlwt5r-62" value="" style="endArrow=none;html=1;rounded=0;fontSize=12;startSize=8;endSize=8;curved=1;" edge="1" parent="1" source="Ltpiq9K8EVX7JEzlwt5r-59" target="Ltpiq9K8EVX7JEzlwt5r-2">
          <mxGeometry width="50" height="50" relative="1" as="geometry">
            <mxPoint x="127" y="432" as="sourcePoint" />
            <mxPoint x="177" y="382" as="targetPoint" />
          </mxGeometry>
        </mxCell>
        <mxCell id="Ltpiq9K8EVX7JEzlwt5r-63" value="o kom" style="edgeLabel;html=1;align=center;verticalAlign=middle;resizable=0;points=[];fontSize=12;" vertex="1" connectable="0" parent="Ltpiq9K8EVX7JEzlwt5r-62">
          <mxGeometry x="-0.4825" y="-1" relative="1" as="geometry">
            <mxPoint x="9" y="1" as="offset" />
          </mxGeometry>
        </mxCell>
        <mxCell id="Ltpiq9K8EVX7JEzlwt5r-64" value="ČLÁNKY 13 A 14" style="rounded=0;whiteSpace=wrap;html=1;" vertex="1" parent="1">
          <mxGeometry x="359" y="207" width="120" height="60" as="geometry" />
        </mxCell>
        <mxCell id="Ltpiq9K8EVX7JEzlwt5r-65" value="" style="endArrow=none;html=1;rounded=0;fontSize=12;startSize=8;endSize=8;curved=1;" edge="1" parent="1" source="Ltpiq9K8EVX7JEzlwt5r-59" target="Ltpiq9K8EVX7JEzlwt5r-64">
          <mxGeometry width="50" height="50" relative="1" as="geometry">
            <mxPoint x="242" y="495" as="sourcePoint" />
            <mxPoint x="292" y="445" as="targetPoint" />
          </mxGeometry>
        </mxCell>
        <mxCell id="Ltpiq9K8EVX7JEzlwt5r-66" value="uvedené v" style="edgeLabel;html=1;align=center;verticalAlign=middle;resizable=0;points=[];fontSize=12;" vertex="1" connectable="0" parent="Ltpiq9K8EVX7JEzlwt5r-65">
          <mxGeometry x="-0.4158" y="1" relative="1" as="geometry">
            <mxPoint as="offset" />
          </mxGeometry>
        </mxCell>
        <mxCell id="Ltpiq9K8EVX7JEzlwt5r-67" value="" style="endArrow=none;html=1;rounded=0;fontSize=12;startSize=8;endSize=8;curved=1;" edge="1" parent="1" source="Ltpiq9K8EVX7JEzlwt5r-47" target="Ltpiq9K8EVX7JEzlwt5r-59">
          <mxGeometry width="50" height="50" relative="1" as="geometry">
            <mxPoint x="265" y="544" as="sourcePoint" />
            <mxPoint x="315" y="494" as="targetPoint" />
          </mxGeometry>
        </mxCell>
        <mxCell id="Ltpiq9K8EVX7JEzlwt5r-68" value="aby poskytl" style="edgeLabel;html=1;align=center;verticalAlign=middle;resizable=0;points=[];fontSize=12;" vertex="1" connectable="0" parent="Ltpiq9K8EVX7JEzlwt5r-67">
          <mxGeometry x="0.3837" y="1" relative="1" as="geometry">
            <mxPoint x="-94" y="66" as="offset" />
          </mxGeometry>
        </mxCell>
        <mxCell id="Ltpiq9K8EVX7JEzlwt5r-69" value="ČLÁNKY 15 AŽ 22" style="rounded=0;whiteSpace=wrap;html=1;" vertex="1" parent="1">
          <mxGeometry x="257" y="394" width="120" height="60" as="geometry" />
        </mxCell>
        <mxCell id="Ltpiq9K8EVX7JEzlwt5r-70" value="" style="endArrow=none;html=1;rounded=0;fontSize=12;startSize=8;endSize=8;curved=1;" edge="1" parent="1" source="Ltpiq9K8EVX7JEzlwt5r-6" target="Ltpiq9K8EVX7JEzlwt5r-69">
          <mxGeometry width="50" height="50" relative="1" as="geometry">
            <mxPoint x="262" y="435" as="sourcePoint" />
            <mxPoint x="312" y="385" as="targetPoint" />
          </mxGeometry>
        </mxCell>
        <mxCell id="Ltpiq9K8EVX7JEzlwt5r-71" value="podle" style="edgeLabel;html=1;align=center;verticalAlign=middle;resizable=0;points=[];fontSize=12;" vertex="1" connectable="0" parent="Ltpiq9K8EVX7JEzlwt5r-70">
          <mxGeometry x="0.4483" y="-4" relative="1" as="geometry">
            <mxPoint x="-4" y="64" as="offset" />
          </mxGeometry>
        </mxCell>
        <mxCell id="Ltpiq9K8EVX7JEzlwt5r-72" value="IDENTITA" style="rounded=0;whiteSpace=wrap;html=1;" vertex="1" parent="1">
          <mxGeometry x="610" y="21" width="120" height="60" as="geometry" />
        </mxCell>
        <mxCell id="Ltpiq9K8EVX7JEzlwt5r-73" value="" style="endArrow=none;html=1;rounded=0;fontSize=12;startSize=8;endSize=8;curved=1;" edge="1" parent="1" source="Ltpiq9K8EVX7JEzlwt5r-72" target="Ltpiq9K8EVX7JEzlwt5r-3">
          <mxGeometry width="50" height="50" relative="1" as="geometry">
            <mxPoint x="215" y="240" as="sourcePoint" />
            <mxPoint x="265" y="190" as="targetPoint" />
          </mxGeometry>
        </mxCell>
        <mxCell id="Ltpiq9K8EVX7JEzlwt5r-74" value="koho" style="edgeLabel;html=1;align=center;verticalAlign=middle;resizable=0;points=[];fontSize=12;" vertex="1" connectable="0" parent="Ltpiq9K8EVX7JEzlwt5r-73">
          <mxGeometry x="-0.4295" y="-1" relative="1" as="geometry">
            <mxPoint x="1" y="-18" as="offset" />
          </mxGeometry>
        </mxCell>
        <mxCell id="Ltpiq9K8EVX7JEzlwt5r-75" value="" style="endArrow=none;html=1;rounded=0;fontSize=12;startSize=8;endSize=8;curved=1;" edge="1" parent="1" source="Ltpiq9K8EVX7JEzlwt5r-2" target="Ltpiq9K8EVX7JEzlwt5r-72">
          <mxGeometry width="50" height="50" relative="1" as="geometry">
            <mxPoint x="258" y="346" as="sourcePoint" />
            <mxPoint x="308" y="296" as="targetPoint" />
          </mxGeometry>
        </mxCell>
        <mxCell id="Ltpiq9K8EVX7JEzlwt5r-76" value="se prokáže komu" style="edgeLabel;html=1;align=center;verticalAlign=middle;resizable=0;points=[];fontSize=12;" vertex="1" connectable="0" parent="Ltpiq9K8EVX7JEzlwt5r-75">
          <mxGeometry x="0.3251" y="-2" relative="1" as="geometry">
            <mxPoint x="136" y="-36" as="offset" />
          </mxGeometry>
        </mxCell>
        <mxCell id="Ltpiq9K8EVX7JEzlwt5r-77" value="" style="endArrow=none;html=1;rounded=0;fontSize=12;startSize=8;endSize=8;curved=1;" edge="1" parent="1" source="Ltpiq9K8EVX7JEzlwt5r-15" target="Ltpiq9K8EVX7JEzlwt5r-3">
          <mxGeometry width="50" height="50" relative="1" as="geometry">
            <mxPoint x="-105" y="630.0909090909092" as="sourcePoint" />
            <mxPoint x="693.3743315508018" y="254" as="targetPoint" />
            <Array as="points">
              <mxPoint x="-182" y="706" />
              <mxPoint x="-182" y="859" />
              <mxPoint x="-145" y="932" />
              <mxPoint x="12" y="993" />
              <mxPoint x="236" y="993" />
              <mxPoint x="490" y="998" />
              <mxPoint x="771" y="942" />
              <mxPoint x="906" y="649" />
            </Array>
          </mxGeometry>
        </mxCell>
        <mxCell id="Ltpiq9K8EVX7JEzlwt5r-78" value="na vyžádání koho" style="edgeLabel;html=1;align=center;verticalAlign=middle;resizable=0;points=[];fontSize=12;" vertex="1" connectable="0" parent="Ltpiq9K8EVX7JEzlwt5r-77">
          <mxGeometry x="0.7154" y="14" relative="1" as="geometry">
            <mxPoint x="-989" y="197" as="offset" />
          </mxGeometry>
        </mxCell>
        <mxCell id="Ltpiq9K8EVX7JEzlwt5r-79" value="PRÁVA" style="rounded=0;whiteSpace=wrap;html=1;" vertex="1" parent="1">
          <mxGeometry x="778" y="21" width="120" height="60" as="geometry" />
        </mxCell>
        <mxCell id="Ltpiq9K8EVX7JEzlwt5r-80" value="" style="endArrow=none;html=1;rounded=0;fontSize=12;startSize=8;endSize=8;curved=1;" edge="1" parent="1" source="Ltpiq9K8EVX7JEzlwt5r-3" target="Ltpiq9K8EVX7JEzlwt5r-79">
          <mxGeometry width="50" height="50" relative="1" as="geometry">
            <mxPoint x="360" y="502" as="sourcePoint" />
            <mxPoint x="410" y="452" as="targetPoint" />
          </mxGeometry>
        </mxCell>
        <mxCell id="Ltpiq9K8EVX7JEzlwt5r-81" value="koho" style="edgeLabel;html=1;align=center;verticalAlign=middle;resizable=0;points=[];fontSize=12;" vertex="1" connectable="0" parent="Ltpiq9K8EVX7JEzlwt5r-80">
          <mxGeometry x="-0.1656" y="2" relative="1" as="geometry">
            <mxPoint x="50" y="-49" as="offset" />
          </mxGeometry>
        </mxCell>
        <mxCell id="Ltpiq9K8EVX7JEzlwt5r-82" value="" style="endArrow=none;html=1;rounded=0;fontSize=12;startSize=8;endSize=8;curved=1;" edge="1" parent="1" source="Ltpiq9K8EVX7JEzlwt5r-79" target="Ltpiq9K8EVX7JEzlwt5r-2">
          <mxGeometry width="50" height="50" relative="1" as="geometry">
            <mxPoint x="360" y="502" as="sourcePoint" />
            <mxPoint x="410" y="452" as="targetPoint" />
            <Array as="points">
              <mxPoint x="512" y="-227" />
            </Array>
          </mxGeometry>
        </mxCell>
        <mxCell id="Ltpiq9K8EVX7JEzlwt5r-83" value="usnadňuje výkon" style="edgeLabel;html=1;align=center;verticalAlign=middle;resizable=0;points=[];fontSize=12;" vertex="1" connectable="0" parent="Ltpiq9K8EVX7JEzlwt5r-82">
          <mxGeometry x="-0.5038" y="113" relative="1" as="geometry">
            <mxPoint x="-486" y="232" as="offset" />
          </mxGeometry>
        </mxCell>
        <mxCell id="Ltpiq9K8EVX7JEzlwt5r-84" value="" style="endArrow=none;html=1;rounded=0;fontSize=12;startSize=8;endSize=8;curved=1;" edge="1" parent="1" source="Ltpiq9K8EVX7JEzlwt5r-69" target="Ltpiq9K8EVX7JEzlwt5r-79">
          <mxGeometry width="50" height="50" relative="1" as="geometry">
            <mxPoint x="308" y="279" as="sourcePoint" />
            <mxPoint x="358" y="229" as="targetPoint" />
            <Array as="points">
              <mxPoint x="946" y="480" />
            </Array>
          </mxGeometry>
        </mxCell>
        <mxCell id="Ltpiq9K8EVX7JEzlwt5r-85" value="podle" style="edgeLabel;html=1;align=center;verticalAlign=middle;resizable=0;points=[];fontSize=12;" vertex="1" connectable="0" parent="Ltpiq9K8EVX7JEzlwt5r-84">
          <mxGeometry x="0.5986" y="73" relative="1" as="geometry">
            <mxPoint x="26" y="-200" as="offset" />
          </mxGeometry>
        </mxCell>
        <mxCell id="Ltpiq9K8EVX7JEzlwt5r-86" value="ŽÁDOST" style="rounded=0;whiteSpace=wrap;html=1;" vertex="1" parent="1">
          <mxGeometry x="953" y="207" width="120" height="60" as="geometry" />
        </mxCell>
        <mxCell id="Ltpiq9K8EVX7JEzlwt5r-87" value="" style="endArrow=none;html=1;rounded=0;fontSize=12;startSize=8;endSize=8;curved=1;" edge="1" parent="1" source="Ltpiq9K8EVX7JEzlwt5r-3" target="Ltpiq9K8EVX7JEzlwt5r-86">
          <mxGeometry width="50" height="50" relative="1" as="geometry">
            <mxPoint x="455" y="405" as="sourcePoint" />
            <mxPoint x="505" y="355" as="targetPoint" />
          </mxGeometry>
        </mxCell>
        <mxCell id="Ltpiq9K8EVX7JEzlwt5r-92" value="podá" style="edgeLabel;html=1;align=center;verticalAlign=middle;resizable=0;points=[];fontSize=12;" vertex="1" connectable="0" parent="Ltpiq9K8EVX7JEzlwt5r-87">
          <mxGeometry x="-0.7796" y="4" relative="1" as="geometry">
            <mxPoint as="offset" />
          </mxGeometry>
        </mxCell>
        <mxCell id="Ltpiq9K8EVX7JEzlwt5r-89" value="" style="endArrow=none;html=1;rounded=0;fontSize=12;startSize=8;endSize=8;curved=1;entryX=0.5;entryY=1;entryDx=0;entryDy=0;" edge="1" parent="1" source="Ltpiq9K8EVX7JEzlwt5r-69" target="Ltpiq9K8EVX7JEzlwt5r-86">
          <mxGeometry width="50" height="50" relative="1" as="geometry">
            <mxPoint x="457" y="405" as="sourcePoint" />
            <mxPoint x="507" y="355" as="targetPoint" />
            <Array as="points">
              <mxPoint x="733" y="635" />
            </Array>
          </mxGeometry>
        </mxCell>
        <mxCell id="Ltpiq9K8EVX7JEzlwt5r-90" value="podle" style="edgeLabel;html=1;align=center;verticalAlign=middle;resizable=0;points=[];fontSize=12;" vertex="1" connectable="0" parent="Ltpiq9K8EVX7JEzlwt5r-89">
          <mxGeometry x="0.6281" y="15" relative="1" as="geometry">
            <mxPoint x="76" y="-86" as="offset" />
          </mxGeometry>
        </mxCell>
        <mxCell id="Ltpiq9K8EVX7JEzlwt5r-93" value="" style="endArrow=none;html=1;rounded=0;fontSize=12;startSize=8;endSize=8;curved=1;" edge="1" parent="1" source="Ltpiq9K8EVX7JEzlwt5r-86" target="Ltpiq9K8EVX7JEzlwt5r-2">
          <mxGeometry width="50" height="50" relative="1" as="geometry">
            <mxPoint x="535" y="292" as="sourcePoint" />
            <mxPoint x="585" y="242" as="targetPoint" />
            <Array as="points">
              <mxPoint x="986" y="-43" />
              <mxPoint x="342" y="-227" />
            </Array>
          </mxGeometry>
        </mxCell>
        <mxCell id="Ltpiq9K8EVX7JEzlwt5r-94" value="komu" style="edgeLabel;html=1;align=center;verticalAlign=middle;resizable=0;points=[];fontSize=12;" vertex="1" connectable="0" parent="Ltpiq9K8EVX7JEzlwt5r-93">
          <mxGeometry x="-0.9656" y="2" relative="1" as="geometry">
            <mxPoint as="offset" />
          </mxGeometry>
        </mxCell>
        <mxCell id="Ltpiq9K8EVX7JEzlwt5r-95" value="INFORMACE" style="rounded=0;whiteSpace=wrap;html=1;" vertex="1" parent="1">
          <mxGeometry x="953" y="580" width="120" height="60" as="geometry" />
        </mxCell>
        <mxCell id="Ltpiq9K8EVX7JEzlwt5r-96" value="" style="endArrow=none;html=1;rounded=0;fontSize=12;startSize=8;endSize=8;curved=1;" edge="1" parent="1" source="Ltpiq9K8EVX7JEzlwt5r-2" target="Ltpiq9K8EVX7JEzlwt5r-95">
          <mxGeometry width="50" height="50" relative="1" as="geometry">
            <mxPoint x="165" y="283" as="sourcePoint" />
            <mxPoint x="215" y="233" as="targetPoint" />
          </mxGeometry>
        </mxCell>
        <mxCell id="Ltpiq9K8EVX7JEzlwt5r-97" value="poskytne" style="edgeLabel;html=1;align=center;verticalAlign=middle;resizable=0;points=[];fontSize=12;" vertex="1" connectable="0" parent="Ltpiq9K8EVX7JEzlwt5r-96">
          <mxGeometry x="-0.9547" relative="1" as="geometry">
            <mxPoint x="16" y="1" as="offset" />
          </mxGeometry>
        </mxCell>
        <mxCell id="Ltpiq9K8EVX7JEzlwt5r-98" value="" style="endArrow=none;html=1;rounded=0;fontSize=12;startSize=8;endSize=8;curved=1;" edge="1" parent="1" source="Ltpiq9K8EVX7JEzlwt5r-95" target="Ltpiq9K8EVX7JEzlwt5r-3">
          <mxGeometry width="50" height="50" relative="1" as="geometry">
            <mxPoint x="591" y="319" as="sourcePoint" />
            <mxPoint x="641" y="269" as="targetPoint" />
          </mxGeometry>
        </mxCell>
        <mxCell id="Ltpiq9K8EVX7JEzlwt5r-99" value="komu" style="edgeLabel;html=1;align=center;verticalAlign=middle;resizable=0;points=[];fontSize=12;" vertex="1" connectable="0" parent="Ltpiq9K8EVX7JEzlwt5r-98">
          <mxGeometry x="-0.879" y="-1" relative="1" as="geometry">
            <mxPoint as="offset" />
          </mxGeometry>
        </mxCell>
        <mxCell id="Ltpiq9K8EVX7JEzlwt5r-100" value="" style="endArrow=none;html=1;rounded=0;fontSize=12;startSize=8;endSize=8;curved=1;" edge="1" parent="1" source="Ltpiq9K8EVX7JEzlwt5r-95" target="Ltpiq9K8EVX7JEzlwt5r-86">
          <mxGeometry width="50" height="50" relative="1" as="geometry">
            <mxPoint x="591" y="319" as="sourcePoint" />
            <mxPoint x="641" y="269" as="targetPoint" />
          </mxGeometry>
        </mxCell>
        <mxCell id="Ltpiq9K8EVX7JEzlwt5r-101" value="na získání" style="edgeLabel;html=1;align=center;verticalAlign=middle;resizable=0;points=[];fontSize=12;" vertex="1" connectable="0" parent="Ltpiq9K8EVX7JEzlwt5r-100">
          <mxGeometry x="-0.8375" relative="1" as="geometry">
            <mxPoint y="-213" as="offset" />
          </mxGeometry>
        </mxCell>
        <mxCell id="Ltpiq9K8EVX7JEzlwt5r-103" value="BEZ ZBYTEČNÝCH ODKLADŮ, NEJPOZDĚJI DO 1 MĚSÍCE OD OBDRŽENÍ ŽÁDOSTI" style="ellipse;whiteSpace=wrap;html=1;" vertex="1" parent="1">
          <mxGeometry x="923" y="721" width="180" height="111" as="geometry" />
        </mxCell>
        <mxCell id="Ltpiq9K8EVX7JEzlwt5r-105" value="" style="endArrow=none;dashed=1;html=1;dashPattern=1 3;strokeWidth=2;rounded=0;fontSize=12;startSize=8;endSize=8;curved=1;" edge="1" parent="1" source="Ltpiq9K8EVX7JEzlwt5r-103" target="Ltpiq9K8EVX7JEzlwt5r-95">
          <mxGeometry width="50" height="50" relative="1" as="geometry">
            <mxPoint x="888" y="723" as="sourcePoint" />
            <mxPoint x="938" y="673" as="targetPoint" />
          </mxGeometry>
        </mxCell>
        <mxCell id="Ltpiq9K8EVX7JEzlwt5r-106" value="PRODLOUŽENÍ O DALŠÍ 2 MĚSÍCE" style="ellipse;whiteSpace=wrap;html=1;" vertex="1" parent="1">
          <mxGeometry x="953" y="936" width="120" height="80" as="geometry" />
        </mxCell>
        <mxCell id="Ltpiq9K8EVX7JEzlwt5r-107" value="" style="endArrow=none;dashed=1;html=1;dashPattern=1 3;strokeWidth=2;rounded=0;fontSize=12;startSize=8;endSize=8;curved=1;" edge="1" parent="1" source="Ltpiq9K8EVX7JEzlwt5r-106" target="Ltpiq9K8EVX7JEzlwt5r-103">
          <mxGeometry width="50" height="50" relative="1" as="geometry">
            <mxPoint x="781" y="722" as="sourcePoint" />
            <mxPoint x="831" y="672" as="targetPoint" />
          </mxGeometry>
        </mxCell>
        <mxCell id="Ltpiq9K8EVX7JEzlwt5r-108" value="DŮVODY" style="rounded=0;whiteSpace=wrap;html=1;" vertex="1" parent="1">
          <mxGeometry x="1177" y="946" width="120" height="60" as="geometry" />
        </mxCell>
        <mxCell id="Ltpiq9K8EVX7JEzlwt5r-110" value="SLOŽITOST ŽÁDOSTI" style="rounded=0;whiteSpace=wrap;html=1;" vertex="1" parent="1">
          <mxGeometry x="1368" y="856" width="120" height="60" as="geometry" />
        </mxCell>
        <mxCell id="Ltpiq9K8EVX7JEzlwt5r-111" value="VYSOKÝ POČET ŽÁDOSTÍ" style="rounded=0;whiteSpace=wrap;html=1;" vertex="1" parent="1">
          <mxGeometry x="1368" y="946" width="120" height="60" as="geometry" />
        </mxCell>
        <mxCell id="Ltpiq9K8EVX7JEzlwt5r-112" value="" style="endArrow=classic;html=1;rounded=0;fontSize=12;startSize=8;endSize=8;curved=1;" edge="1" parent="1" source="Ltpiq9K8EVX7JEzlwt5r-110" target="Ltpiq9K8EVX7JEzlwt5r-108">
          <mxGeometry width="50" height="50" relative="1" as="geometry">
            <mxPoint x="977" y="722" as="sourcePoint" />
            <mxPoint x="1027" y="672" as="targetPoint" />
          </mxGeometry>
        </mxCell>
        <mxCell id="Ltpiq9K8EVX7JEzlwt5r-113" value="" style="endArrow=classic;html=1;rounded=0;fontSize=12;startSize=8;endSize=8;curved=1;" edge="1" parent="1" source="Ltpiq9K8EVX7JEzlwt5r-111" target="Ltpiq9K8EVX7JEzlwt5r-108">
          <mxGeometry width="50" height="50" relative="1" as="geometry">
            <mxPoint x="977" y="722" as="sourcePoint" />
            <mxPoint x="1027" y="672" as="targetPoint" />
          </mxGeometry>
        </mxCell>
        <mxCell id="Ltpiq9K8EVX7JEzlwt5r-114" value="PRODLOUŽENÍ LHŮTY" style="rounded=0;whiteSpace=wrap;html=1;" vertex="1" parent="1">
          <mxGeometry x="1179" y="746.5" width="120" height="60" as="geometry" />
        </mxCell>
        <mxCell id="Ltpiq9K8EVX7JEzlwt5r-115" value="" style="endArrow=none;html=1;rounded=0;fontSize=12;startSize=8;endSize=8;curved=1;" edge="1" parent="1" source="Ltpiq9K8EVX7JEzlwt5r-108" target="Ltpiq9K8EVX7JEzlwt5r-114">
          <mxGeometry width="50" height="50" relative="1" as="geometry">
            <mxPoint x="930" y="673" as="sourcePoint" />
            <mxPoint x="980" y="623" as="targetPoint" />
          </mxGeometry>
        </mxCell>
        <mxCell id="Ltpiq9K8EVX7JEzlwt5r-116" value="kvůli" style="edgeLabel;html=1;align=center;verticalAlign=middle;resizable=0;points=[];fontSize=12;" vertex="1" connectable="0" parent="Ltpiq9K8EVX7JEzlwt5r-115">
          <mxGeometry x="0.597" y="4" relative="1" as="geometry">
            <mxPoint as="offset" />
          </mxGeometry>
        </mxCell>
        <mxCell id="Ltpiq9K8EVX7JEzlwt5r-117" value="" style="endArrow=none;dashed=1;html=1;dashPattern=1 3;strokeWidth=2;rounded=0;fontSize=12;startSize=8;endSize=8;curved=1;entryX=0.25;entryY=1;entryDx=0;entryDy=0;" edge="1" parent="1" source="Ltpiq9K8EVX7JEzlwt5r-106" target="Ltpiq9K8EVX7JEzlwt5r-114">
          <mxGeometry width="50" height="50" relative="1" as="geometry">
            <mxPoint x="930" y="673" as="sourcePoint" />
            <mxPoint x="980" y="623" as="targetPoint" />
          </mxGeometry>
        </mxCell>
        <mxCell id="Ltpiq9K8EVX7JEzlwt5r-118" value="" style="endArrow=none;html=1;rounded=0;fontSize=12;startSize=8;endSize=8;curved=1;" edge="1" parent="1" source="Ltpiq9K8EVX7JEzlwt5r-114" target="Ltpiq9K8EVX7JEzlwt5r-3">
          <mxGeometry width="50" height="50" relative="1" as="geometry">
            <mxPoint x="742" y="605" as="sourcePoint" />
            <mxPoint x="792" y="555" as="targetPoint" />
            <Array as="points">
              <mxPoint x="1090" y="402" />
            </Array>
          </mxGeometry>
        </mxCell>
        <mxCell id="Ltpiq9K8EVX7JEzlwt5r-119" value="je informován o" style="edgeLabel;html=1;align=center;verticalAlign=middle;resizable=0;points=[];fontSize=12;" vertex="1" connectable="0" parent="Ltpiq9K8EVX7JEzlwt5r-118">
          <mxGeometry x="-0.8948" y="2" relative="1" as="geometry">
            <mxPoint x="-432" y="-430" as="offset" />
          </mxGeometry>
        </mxCell>
        <mxCell id="Ltpiq9K8EVX7JEzlwt5r-125" value="DO 1 MĚSÍCE OD PODÁNÍ ŽÁDOSTI" style="ellipse;whiteSpace=wrap;html=1;" vertex="1" parent="1">
          <mxGeometry x="775" y="933" width="120" height="80" as="geometry" />
        </mxCell>
        <mxCell id="Ltpiq9K8EVX7JEzlwt5r-127" value="" style="endArrow=none;dashed=1;html=1;dashPattern=1 3;strokeWidth=2;rounded=0;fontSize=12;startSize=8;endSize=8;curved=1;" edge="1" parent="1" source="Ltpiq9K8EVX7JEzlwt5r-125" target="Ltpiq9K8EVX7JEzlwt5r-128">
          <mxGeometry width="50" height="50" relative="1" as="geometry">
            <mxPoint x="-169" y="405" as="sourcePoint" />
            <mxPoint x="-210" y="447" as="targetPoint" />
          </mxGeometry>
        </mxCell>
        <mxCell id="Ltpiq9K8EVX7JEzlwt5r-128" value="OZNÁMENÍ" style="rounded=0;whiteSpace=wrap;html=1;" vertex="1" parent="1">
          <mxGeometry x="610" y="1058" width="120" height="60" as="geometry" />
        </mxCell>
        <mxCell id="Ltpiq9K8EVX7JEzlwt5r-129" value="" style="endArrow=none;html=1;rounded=0;fontSize=12;startSize=8;endSize=8;curved=1;" edge="1" parent="1" source="Ltpiq9K8EVX7JEzlwt5r-128" target="Ltpiq9K8EVX7JEzlwt5r-2">
          <mxGeometry width="50" height="50" relative="1" as="geometry">
            <mxPoint x="243" y="939" as="sourcePoint" />
            <mxPoint x="293" y="889" as="targetPoint" />
            <Array as="points">
              <mxPoint x="-599" y="1265" />
            </Array>
          </mxGeometry>
        </mxCell>
        <mxCell id="Ltpiq9K8EVX7JEzlwt5r-130" value="" style="endArrow=none;html=1;rounded=0;fontSize=12;startSize=8;endSize=8;curved=1;exitX=1;exitY=0.75;exitDx=0;exitDy=0;" edge="1" parent="1" source="Ltpiq9K8EVX7JEzlwt5r-128" target="Ltpiq9K8EVX7JEzlwt5r-108">
          <mxGeometry width="50" height="50" relative="1" as="geometry">
            <mxPoint x="796" y="871" as="sourcePoint" />
            <mxPoint x="846" y="821" as="targetPoint" />
            <Array as="points">
              <mxPoint x="1273" y="1266" />
            </Array>
          </mxGeometry>
        </mxCell>
        <mxCell id="Ltpiq9K8EVX7JEzlwt5r-133" value="O" style="edgeLabel;html=1;align=center;verticalAlign=middle;resizable=0;points=[];fontSize=12;" vertex="1" connectable="0" parent="Ltpiq9K8EVX7JEzlwt5r-130">
          <mxGeometry x="-0.3479" y="20" relative="1" as="geometry">
            <mxPoint x="-117" y="-20" as="offset" />
          </mxGeometry>
        </mxCell>
        <mxCell id="Ltpiq9K8EVX7JEzlwt5r-131" value="" style="endArrow=none;html=1;rounded=0;fontSize=12;startSize=8;endSize=8;curved=1;" edge="1" parent="1" source="Ltpiq9K8EVX7JEzlwt5r-128" target="Ltpiq9K8EVX7JEzlwt5r-114">
          <mxGeometry width="50" height="50" relative="1" as="geometry">
            <mxPoint x="796" y="871" as="sourcePoint" />
            <mxPoint x="846" y="821" as="targetPoint" />
            <Array as="points">
              <mxPoint x="1110" y="1140" />
            </Array>
          </mxGeometry>
        </mxCell>
        <mxCell id="Ltpiq9K8EVX7JEzlwt5r-132" value="O" style="edgeLabel;html=1;align=center;verticalAlign=middle;resizable=0;points=[];fontSize=12;" vertex="1" connectable="0" parent="Ltpiq9K8EVX7JEzlwt5r-131">
          <mxGeometry x="-0.3687" y="46" relative="1" as="geometry">
            <mxPoint x="-127" y="20" as="offset" />
          </mxGeometry>
        </mxCell>
        <mxCell id="Ltpiq9K8EVX7JEzlwt5r-134" value="PÍSEMNÁ" style="rounded=0;whiteSpace=wrap;html=1;" vertex="1" parent="1">
          <mxGeometry x="1299" y="115" width="120" height="60" as="geometry" />
        </mxCell>
        <mxCell id="Ltpiq9K8EVX7JEzlwt5r-135" value="ELEKTRONICKÁ" style="rounded=0;whiteSpace=wrap;html=1;" vertex="1" parent="1">
          <mxGeometry x="1297" y="207" width="120" height="60" as="geometry" />
        </mxCell>
        <mxCell id="Ltpiq9K8EVX7JEzlwt5r-138" value="PÍSEMNÉ" style="rounded=0;whiteSpace=wrap;html=1;" vertex="1" parent="1">
          <mxGeometry x="490" y="1221" width="120" height="60" as="geometry" />
        </mxCell>
        <mxCell id="Ltpiq9K8EVX7JEzlwt5r-139" value="ELEKTRONICKÉ" style="rounded=0;whiteSpace=wrap;html=1;" vertex="1" parent="1">
          <mxGeometry x="640" y="1221" width="120" height="60" as="geometry" />
        </mxCell>
        <mxCell id="Ltpiq9K8EVX7JEzlwt5r-140" value="" style="endArrow=classic;html=1;rounded=0;fontSize=12;startSize=8;endSize=8;curved=1;" edge="1" parent="1" source="Ltpiq9K8EVX7JEzlwt5r-138" target="Ltpiq9K8EVX7JEzlwt5r-128">
          <mxGeometry width="50" height="50" relative="1" as="geometry">
            <mxPoint x="905" y="754" as="sourcePoint" />
            <mxPoint x="955" y="704" as="targetPoint" />
          </mxGeometry>
        </mxCell>
        <mxCell id="Ltpiq9K8EVX7JEzlwt5r-229" value="or" style="edgeLabel;html=1;align=center;verticalAlign=middle;resizable=0;points=[];fontSize=12;" vertex="1" connectable="0" parent="Ltpiq9K8EVX7JEzlwt5r-140">
          <mxGeometry x="0.2469" y="-4" relative="1" as="geometry">
            <mxPoint as="offset" />
          </mxGeometry>
        </mxCell>
        <mxCell id="Ltpiq9K8EVX7JEzlwt5r-141" value="" style="endArrow=classic;html=1;rounded=0;fontSize=12;startSize=8;endSize=8;curved=1;" edge="1" parent="1" source="Ltpiq9K8EVX7JEzlwt5r-139" target="Ltpiq9K8EVX7JEzlwt5r-128">
          <mxGeometry width="50" height="50" relative="1" as="geometry">
            <mxPoint x="905" y="754" as="sourcePoint" />
            <mxPoint x="955" y="704" as="targetPoint" />
          </mxGeometry>
        </mxCell>
        <mxCell id="Ltpiq9K8EVX7JEzlwt5r-230" value="or" style="edgeLabel;html=1;align=center;verticalAlign=middle;resizable=0;points=[];fontSize=12;" vertex="1" connectable="0" parent="Ltpiq9K8EVX7JEzlwt5r-141">
          <mxGeometry x="0.0226" y="2" relative="1" as="geometry">
            <mxPoint y="1" as="offset" />
          </mxGeometry>
        </mxCell>
        <mxCell id="Ltpiq9K8EVX7JEzlwt5r-142" value="" style="endArrow=none;html=1;rounded=0;fontSize=12;startSize=8;endSize=8;curved=1;" edge="1" parent="1" source="Ltpiq9K8EVX7JEzlwt5r-139" target="Ltpiq9K8EVX7JEzlwt5r-135">
          <mxGeometry width="50" height="50" relative="1" as="geometry">
            <mxPoint x="996" y="754" as="sourcePoint" />
            <mxPoint x="1046" y="704" as="targetPoint" />
            <Array as="points">
              <mxPoint x="2083" y="1300" />
            </Array>
          </mxGeometry>
        </mxCell>
        <mxCell id="Ltpiq9K8EVX7JEzlwt5r-154" value="" style="endArrow=none;html=1;rounded=0;fontSize=12;startSize=8;endSize=8;curved=1;" edge="1" parent="1" source="Ltpiq9K8EVX7JEzlwt5r-95" target="Ltpiq9K8EVX7JEzlwt5r-47">
          <mxGeometry width="50" height="50" relative="1" as="geometry">
            <mxPoint x="1132" y="603" as="sourcePoint" />
            <mxPoint x="1382.5652173913045" y="410" as="targetPoint" />
          </mxGeometry>
        </mxCell>
        <mxCell id="Ltpiq9K8EVX7JEzlwt5r-155" value="o" style="edgeLabel;html=1;align=center;verticalAlign=middle;resizable=0;points=[];fontSize=12;" vertex="1" connectable="0" parent="Ltpiq9K8EVX7JEzlwt5r-154">
          <mxGeometry x="-0.8199" y="-1" relative="1" as="geometry">
            <mxPoint y="1" as="offset" />
          </mxGeometry>
        </mxCell>
        <mxCell id="Ltpiq9K8EVX7JEzlwt5r-165" value="VHODNÁ&amp;nbsp;" style="rounded=0;whiteSpace=wrap;html=1;" vertex="1" parent="1">
          <mxGeometry x="-329" y="399" width="120" height="60" as="geometry" />
        </mxCell>
        <mxCell id="Ltpiq9K8EVX7JEzlwt5r-166" value="NEVHODNÁ" style="rounded=0;whiteSpace=wrap;html=1;" vertex="1" parent="1">
          <mxGeometry x="-482" y="399" width="120" height="60" as="geometry" />
        </mxCell>
        <mxCell id="Ltpiq9K8EVX7JEzlwt5r-167" value="" style="endArrow=none;html=1;rounded=0;fontSize=12;startSize=8;endSize=8;curved=1;" edge="1" parent="1" source="Ltpiq9K8EVX7JEzlwt5r-165" target="Ltpiq9K8EVX7JEzlwt5r-2">
          <mxGeometry width="50" height="50" relative="1" as="geometry">
            <mxPoint x="-152" y="484" as="sourcePoint" />
            <mxPoint x="-102" y="434" as="targetPoint" />
          </mxGeometry>
        </mxCell>
        <mxCell id="Ltpiq9K8EVX7JEzlwt5r-169" value="přijme" style="edgeLabel;html=1;align=center;verticalAlign=middle;resizable=0;points=[];fontSize=12;" vertex="1" connectable="0" parent="Ltpiq9K8EVX7JEzlwt5r-167">
          <mxGeometry x="-0.035" y="-1" relative="1" as="geometry">
            <mxPoint x="34" y="-33" as="offset" />
          </mxGeometry>
        </mxCell>
        <mxCell id="Ltpiq9K8EVX7JEzlwt5r-168" value="" style="endArrow=none;html=1;rounded=0;fontSize=12;startSize=8;endSize=8;curved=1;" edge="1" parent="1" source="Ltpiq9K8EVX7JEzlwt5r-166" target="Ltpiq9K8EVX7JEzlwt5r-2">
          <mxGeometry width="50" height="50" relative="1" as="geometry">
            <mxPoint x="-244" y="303" as="sourcePoint" />
            <mxPoint x="-194" y="253" as="targetPoint" />
          </mxGeometry>
        </mxCell>
        <mxCell id="Ltpiq9K8EVX7JEzlwt5r-170" value="nepřijme" style="edgeLabel;html=1;align=center;verticalAlign=middle;resizable=0;points=[];fontSize=12;" vertex="1" connectable="0" parent="Ltpiq9K8EVX7JEzlwt5r-168">
          <mxGeometry x="0.5565" y="-1" relative="1" as="geometry">
            <mxPoint x="15" y="-18" as="offset" />
          </mxGeometry>
        </mxCell>
        <mxCell id="Ltpiq9K8EVX7JEzlwt5r-171" value="" style="endArrow=classic;html=1;rounded=0;fontSize=12;startSize=8;endSize=8;curved=1;" edge="1" parent="1" source="Ltpiq9K8EVX7JEzlwt5r-165" target="Ltpiq9K8EVX7JEzlwt5r-47">
          <mxGeometry width="50" height="50" relative="1" as="geometry">
            <mxPoint x="-152" y="484" as="sourcePoint" />
            <mxPoint x="-102" y="434" as="targetPoint" />
          </mxGeometry>
        </mxCell>
        <mxCell id="Ltpiq9K8EVX7JEzlwt5r-172" value="" style="endArrow=classic;html=1;rounded=0;fontSize=12;startSize=8;endSize=8;curved=1;" edge="1" parent="1" source="Ltpiq9K8EVX7JEzlwt5r-166" target="Ltpiq9K8EVX7JEzlwt5r-47">
          <mxGeometry width="50" height="50" relative="1" as="geometry">
            <mxPoint x="-152" y="484" as="sourcePoint" />
            <mxPoint x="-102" y="434" as="targetPoint" />
            <Array as="points">
              <mxPoint x="-278" y="551" />
            </Array>
          </mxGeometry>
        </mxCell>
        <mxCell id="Ltpiq9K8EVX7JEzlwt5r-173" value="PŘÍČINY" style="rounded=0;whiteSpace=wrap;html=1;" vertex="1" parent="1">
          <mxGeometry x="-482" y="600" width="120" height="60" as="geometry" />
        </mxCell>
        <mxCell id="Ltpiq9K8EVX7JEzlwt5r-176" value="" style="endArrow=none;html=1;rounded=0;fontSize=12;startSize=8;endSize=8;curved=1;" edge="1" parent="1" source="Ltpiq9K8EVX7JEzlwt5r-173" target="Ltpiq9K8EVX7JEzlwt5r-166">
          <mxGeometry width="50" height="50" relative="1" as="geometry">
            <mxPoint x="-374" y="484" as="sourcePoint" />
            <mxPoint x="-324" y="434" as="targetPoint" />
          </mxGeometry>
        </mxCell>
        <mxCell id="Ltpiq9K8EVX7JEzlwt5r-177" value="pro odmítnutí" style="edgeLabel;html=1;align=center;verticalAlign=middle;resizable=0;points=[];fontSize=12;" vertex="1" connectable="0" parent="Ltpiq9K8EVX7JEzlwt5r-176">
          <mxGeometry x="-0.6562" relative="1" as="geometry">
            <mxPoint as="offset" />
          </mxGeometry>
        </mxCell>
        <mxCell id="Ltpiq9K8EVX7JEzlwt5r-180" value="" style="endArrow=none;html=1;rounded=0;fontSize=12;startSize=8;endSize=8;curved=1;" edge="1" parent="1" source="Ltpiq9K8EVX7JEzlwt5r-182" target="Ltpiq9K8EVX7JEzlwt5r-3">
          <mxGeometry width="50" height="50" relative="1" as="geometry">
            <mxPoint x="171" y="627" as="sourcePoint" />
            <mxPoint x="221" y="577" as="targetPoint" />
            <Array as="points">
              <mxPoint x="-82" y="-398" />
            </Array>
          </mxGeometry>
        </mxCell>
        <mxCell id="Ltpiq9K8EVX7JEzlwt5r-190" value="je podáno komu" style="edgeLabel;html=1;align=center;verticalAlign=middle;resizable=0;points=[];fontSize=12;" vertex="1" connectable="0" parent="Ltpiq9K8EVX7JEzlwt5r-180">
          <mxGeometry x="-0.9282" y="2" relative="1" as="geometry">
            <mxPoint as="offset" />
          </mxGeometry>
        </mxCell>
        <mxCell id="Ltpiq9K8EVX7JEzlwt5r-182" value="POUČENÍ" style="rounded=0;whiteSpace=wrap;html=1;" vertex="1" parent="1">
          <mxGeometry x="-680" y="399" width="120" height="60" as="geometry" />
        </mxCell>
        <mxCell id="Ltpiq9K8EVX7JEzlwt5r-183" value="" style="endArrow=none;html=1;rounded=0;fontSize=12;startSize=8;endSize=8;curved=1;" edge="1" parent="1" source="Ltpiq9K8EVX7JEzlwt5r-182" target="Ltpiq9K8EVX7JEzlwt5r-2">
          <mxGeometry width="50" height="50" relative="1" as="geometry">
            <mxPoint x="-222" y="627" as="sourcePoint" />
            <mxPoint x="-172" y="577" as="targetPoint" />
          </mxGeometry>
        </mxCell>
        <mxCell id="Ltpiq9K8EVX7JEzlwt5r-184" value="poskytne" style="edgeLabel;html=1;align=center;verticalAlign=middle;resizable=0;points=[];fontSize=12;" vertex="1" connectable="0" parent="Ltpiq9K8EVX7JEzlwt5r-183">
          <mxGeometry x="0.159" y="1" relative="1" as="geometry">
            <mxPoint x="72" y="-29" as="offset" />
          </mxGeometry>
        </mxCell>
        <mxCell id="Ltpiq9K8EVX7JEzlwt5r-185" value="" style="endArrow=none;html=1;rounded=0;fontSize=12;startSize=8;endSize=8;curved=1;" edge="1" parent="1" source="Ltpiq9K8EVX7JEzlwt5r-182" target="Ltpiq9K8EVX7JEzlwt5r-173">
          <mxGeometry width="50" height="50" relative="1" as="geometry">
            <mxPoint x="-222" y="627" as="sourcePoint" />
            <mxPoint x="-172" y="577" as="targetPoint" />
          </mxGeometry>
        </mxCell>
        <mxCell id="Ltpiq9K8EVX7JEzlwt5r-186" value="o" style="edgeLabel;html=1;align=center;verticalAlign=middle;resizable=0;points=[];fontSize=12;" vertex="1" connectable="0" parent="Ltpiq9K8EVX7JEzlwt5r-185">
          <mxGeometry x="-0.5978" y="2" relative="1" as="geometry">
            <mxPoint as="offset" />
          </mxGeometry>
        </mxCell>
        <mxCell id="Ltpiq9K8EVX7JEzlwt5r-187" value="STÍŽNOST" style="rounded=0;whiteSpace=wrap;html=1;" vertex="1" parent="1">
          <mxGeometry x="-903" y="402" width="120" height="60" as="geometry" />
        </mxCell>
        <mxCell id="Ltpiq9K8EVX7JEzlwt5r-192" value="DOZOROVÝ ÚŘAD" style="rounded=0;whiteSpace=wrap;html=1;" vertex="1" parent="1">
          <mxGeometry x="-482" y="25" width="120" height="60" as="geometry" />
        </mxCell>
        <mxCell id="Ltpiq9K8EVX7JEzlwt5r-193" value="SOUD" style="rounded=0;whiteSpace=wrap;html=1;" vertex="1" parent="1">
          <mxGeometry x="-482" y="-107" width="120" height="60" as="geometry" />
        </mxCell>
        <mxCell id="Ltpiq9K8EVX7JEzlwt5r-194" value="" style="endArrow=classic;html=1;rounded=0;fontSize=12;startSize=8;endSize=8;curved=1;" edge="1" parent="1" source="Ltpiq9K8EVX7JEzlwt5r-192" target="Ltpiq9K8EVX7JEzlwt5r-1">
          <mxGeometry width="50" height="50" relative="1" as="geometry">
            <mxPoint x="-437" y="394" as="sourcePoint" />
            <mxPoint x="-387" y="344" as="targetPoint" />
          </mxGeometry>
        </mxCell>
        <mxCell id="Ltpiq9K8EVX7JEzlwt5r-195" value="" style="endArrow=classic;html=1;rounded=0;fontSize=12;startSize=8;endSize=8;curved=1;" edge="1" parent="1" source="Ltpiq9K8EVX7JEzlwt5r-193" target="Ltpiq9K8EVX7JEzlwt5r-1">
          <mxGeometry width="50" height="50" relative="1" as="geometry">
            <mxPoint x="-437" y="394" as="sourcePoint" />
            <mxPoint x="-387" y="344" as="targetPoint" />
          </mxGeometry>
        </mxCell>
        <mxCell id="Ltpiq9K8EVX7JEzlwt5r-198" value="MOŽNOST" style="rounded=0;whiteSpace=wrap;html=1;" vertex="1" parent="1">
          <mxGeometry x="-680" y="600" width="120" height="60" as="geometry" />
        </mxCell>
        <mxCell id="Ltpiq9K8EVX7JEzlwt5r-199" value="" style="endArrow=none;html=1;rounded=0;fontSize=12;startSize=8;endSize=8;curved=1;" edge="1" parent="1" source="Ltpiq9K8EVX7JEzlwt5r-198" target="Ltpiq9K8EVX7JEzlwt5r-182">
          <mxGeometry width="50" height="50" relative="1" as="geometry">
            <mxPoint x="-624" y="317" as="sourcePoint" />
            <mxPoint x="-574" y="267" as="targetPoint" />
          </mxGeometry>
        </mxCell>
        <mxCell id="Ltpiq9K8EVX7JEzlwt5r-200" value="o" style="edgeLabel;html=1;align=center;verticalAlign=middle;resizable=0;points=[];fontSize=12;" vertex="1" connectable="0" parent="Ltpiq9K8EVX7JEzlwt5r-199">
          <mxGeometry x="0.6359" y="2" relative="1" as="geometry">
            <mxPoint as="offset" />
          </mxGeometry>
        </mxCell>
        <mxCell id="Ltpiq9K8EVX7JEzlwt5r-201" value="" style="endArrow=none;html=1;rounded=0;fontSize=12;startSize=8;endSize=8;curved=1;" edge="1" parent="1" source="Ltpiq9K8EVX7JEzlwt5r-198" target="Ltpiq9K8EVX7JEzlwt5r-187">
          <mxGeometry width="50" height="50" relative="1" as="geometry">
            <mxPoint x="-624" y="317" as="sourcePoint" />
            <mxPoint x="-574" y="267" as="targetPoint" />
          </mxGeometry>
        </mxCell>
        <mxCell id="Ltpiq9K8EVX7JEzlwt5r-202" value="podat" style="edgeLabel;html=1;align=center;verticalAlign=middle;resizable=0;points=[];fontSize=12;" vertex="1" connectable="0" parent="Ltpiq9K8EVX7JEzlwt5r-201">
          <mxGeometry x="-0.6845" y="-7" relative="1" as="geometry">
            <mxPoint as="offset" />
          </mxGeometry>
        </mxCell>
        <mxCell id="Ltpiq9K8EVX7JEzlwt5r-203" value="" style="endArrow=none;html=1;rounded=0;fontSize=12;startSize=8;endSize=8;curved=1;" edge="1" parent="1" source="Ltpiq9K8EVX7JEzlwt5r-187" target="Ltpiq9K8EVX7JEzlwt5r-192">
          <mxGeometry width="50" height="50" relative="1" as="geometry">
            <mxPoint x="-624" y="317" as="sourcePoint" />
            <mxPoint x="-574" y="267" as="targetPoint" />
          </mxGeometry>
        </mxCell>
        <mxCell id="Ltpiq9K8EVX7JEzlwt5r-204" value="u" style="edgeLabel;html=1;align=center;verticalAlign=middle;resizable=0;points=[];fontSize=12;" vertex="1" connectable="0" parent="Ltpiq9K8EVX7JEzlwt5r-203">
          <mxGeometry x="-0.8353" y="-2" relative="1" as="geometry">
            <mxPoint y="-1" as="offset" />
          </mxGeometry>
        </mxCell>
        <mxCell id="Ltpiq9K8EVX7JEzlwt5r-205" value="OCHRANA" style="rounded=0;whiteSpace=wrap;html=1;" vertex="1" parent="1">
          <mxGeometry x="-903" y="246" width="120" height="60" as="geometry" />
        </mxCell>
        <mxCell id="Ltpiq9K8EVX7JEzlwt5r-206" value="" style="endArrow=none;html=1;rounded=0;fontSize=12;startSize=8;endSize=8;curved=1;" edge="1" parent="1" source="Ltpiq9K8EVX7JEzlwt5r-205" target="Ltpiq9K8EVX7JEzlwt5r-198">
          <mxGeometry width="50" height="50" relative="1" as="geometry">
            <mxPoint x="-514" y="317" as="sourcePoint" />
            <mxPoint x="-464" y="267" as="targetPoint" />
            <Array as="points">
              <mxPoint x="-1139" y="561" />
            </Array>
          </mxGeometry>
        </mxCell>
        <mxCell id="Ltpiq9K8EVX7JEzlwt5r-207" value="žádat o" style="edgeLabel;html=1;align=center;verticalAlign=middle;resizable=0;points=[];fontSize=12;" vertex="1" connectable="0" parent="Ltpiq9K8EVX7JEzlwt5r-206">
          <mxGeometry x="0.9163" y="2" relative="1" as="geometry">
            <mxPoint as="offset" />
          </mxGeometry>
        </mxCell>
        <mxCell id="Ltpiq9K8EVX7JEzlwt5r-208" value="" style="endArrow=none;html=1;rounded=0;fontSize=12;startSize=8;endSize=8;curved=1;" edge="1" parent="1" source="Ltpiq9K8EVX7JEzlwt5r-205" target="Ltpiq9K8EVX7JEzlwt5r-193">
          <mxGeometry width="50" height="50" relative="1" as="geometry">
            <mxPoint x="-514" y="317" as="sourcePoint" />
            <mxPoint x="-464" y="267" as="targetPoint" />
          </mxGeometry>
        </mxCell>
        <mxCell id="Ltpiq9K8EVX7JEzlwt5r-209" value="od" style="edgeLabel;html=1;align=center;verticalAlign=middle;resizable=0;points=[];fontSize=12;" vertex="1" connectable="0" parent="Ltpiq9K8EVX7JEzlwt5r-208">
          <mxGeometry x="-0.8754" y="-2" relative="1" as="geometry">
            <mxPoint y="-1" as="offset" />
          </mxGeometry>
        </mxCell>
        <mxCell id="Ltpiq9K8EVX7JEzlwt5r-210" value="BEZODKLADNĚ, NEJPOZDĚJI DO 1 MĚSÍCE OD PŘIJETÍ ŽÁDOSTI" style="ellipse;whiteSpace=wrap;html=1;" vertex="1" parent="1">
          <mxGeometry x="-539" y="695" width="141" height="88" as="geometry" />
        </mxCell>
        <mxCell id="Ltpiq9K8EVX7JEzlwt5r-211" value="" style="endArrow=none;dashed=1;html=1;dashPattern=1 3;strokeWidth=2;rounded=0;fontSize=12;startSize=8;endSize=8;curved=1;" edge="1" parent="1" source="Ltpiq9K8EVX7JEzlwt5r-210" target="Ltpiq9K8EVX7JEzlwt5r-182">
          <mxGeometry width="50" height="50" relative="1" as="geometry">
            <mxPoint x="-529" y="659" as="sourcePoint" />
            <mxPoint x="-479" y="609" as="targetPoint" />
          </mxGeometry>
        </mxCell>
        <mxCell id="Ltpiq9K8EVX7JEzlwt5r-212" value="NEDŮVODNÁ ČI NEPŘIMĚŘENÁ" style="rounded=0;whiteSpace=wrap;html=1;" vertex="1" parent="1">
          <mxGeometry x="1297" y="394" width="120" height="60" as="geometry" />
        </mxCell>
        <mxCell id="Ltpiq9K8EVX7JEzlwt5r-213" value="" style="endArrow=classic;html=1;rounded=0;fontSize=12;startSize=8;endSize=8;curved=1;" edge="1" parent="1" source="Ltpiq9K8EVX7JEzlwt5r-212" target="Ltpiq9K8EVX7JEzlwt5r-86">
          <mxGeometry width="50" height="50" relative="1" as="geometry">
            <mxPoint x="883" y="341" as="sourcePoint" />
            <mxPoint x="933" y="291" as="targetPoint" />
          </mxGeometry>
        </mxCell>
        <mxCell id="Ltpiq9K8EVX7JEzlwt5r-236" value="or" style="edgeLabel;html=1;align=center;verticalAlign=middle;resizable=0;points=[];fontSize=12;" vertex="1" connectable="0" parent="Ltpiq9K8EVX7JEzlwt5r-213">
          <mxGeometry x="-0.0423" relative="1" as="geometry">
            <mxPoint as="offset" />
          </mxGeometry>
        </mxCell>
        <mxCell id="Ltpiq9K8EVX7JEzlwt5r-215" value="FORMA" style="rounded=0;whiteSpace=wrap;html=1;" vertex="1" parent="1">
          <mxGeometry x="1125" y="173" width="120" height="60" as="geometry" />
        </mxCell>
        <mxCell id="Ltpiq9K8EVX7JEzlwt5r-216" value="" style="endArrow=classic;html=1;rounded=0;fontSize=12;startSize=8;endSize=8;curved=1;" edge="1" parent="1" source="Ltpiq9K8EVX7JEzlwt5r-134" target="Ltpiq9K8EVX7JEzlwt5r-215">
          <mxGeometry width="50" height="50" relative="1" as="geometry">
            <mxPoint x="884" y="339" as="sourcePoint" />
            <mxPoint x="934" y="289" as="targetPoint" />
          </mxGeometry>
        </mxCell>
        <mxCell id="Ltpiq9K8EVX7JEzlwt5r-231" value="or" style="edgeLabel;html=1;align=center;verticalAlign=middle;resizable=0;points=[];fontSize=12;" vertex="1" connectable="0" parent="Ltpiq9K8EVX7JEzlwt5r-216">
          <mxGeometry x="-0.3784" y="2" relative="1" as="geometry">
            <mxPoint as="offset" />
          </mxGeometry>
        </mxCell>
        <mxCell id="Ltpiq9K8EVX7JEzlwt5r-217" value="" style="endArrow=classic;html=1;rounded=0;fontSize=12;startSize=8;endSize=8;curved=1;" edge="1" parent="1" source="Ltpiq9K8EVX7JEzlwt5r-135" target="Ltpiq9K8EVX7JEzlwt5r-215">
          <mxGeometry width="50" height="50" relative="1" as="geometry">
            <mxPoint x="884" y="339" as="sourcePoint" />
            <mxPoint x="934" y="289" as="targetPoint" />
          </mxGeometry>
        </mxCell>
        <mxCell id="Ltpiq9K8EVX7JEzlwt5r-232" value="or" style="edgeLabel;html=1;align=center;verticalAlign=middle;resizable=0;points=[];fontSize=12;" vertex="1" connectable="0" parent="Ltpiq9K8EVX7JEzlwt5r-217">
          <mxGeometry x="-0.3776" y="2" relative="1" as="geometry">
            <mxPoint as="offset" />
          </mxGeometry>
        </mxCell>
        <mxCell id="Ltpiq9K8EVX7JEzlwt5r-218" value="" style="endArrow=none;html=1;rounded=0;fontSize=12;startSize=8;endSize=8;curved=1;" edge="1" parent="1" source="Ltpiq9K8EVX7JEzlwt5r-86" target="Ltpiq9K8EVX7JEzlwt5r-215">
          <mxGeometry width="50" height="50" relative="1" as="geometry">
            <mxPoint x="884" y="339" as="sourcePoint" />
            <mxPoint x="934" y="289" as="targetPoint" />
          </mxGeometry>
        </mxCell>
        <mxCell id="Ltpiq9K8EVX7JEzlwt5r-219" value="čeho" style="edgeLabel;html=1;align=center;verticalAlign=middle;resizable=0;points=[];fontSize=12;" vertex="1" connectable="0" parent="Ltpiq9K8EVX7JEzlwt5r-218">
          <mxGeometry x="0.2402" y="1" relative="1" as="geometry">
            <mxPoint as="offset" />
          </mxGeometry>
        </mxCell>
        <mxCell id="Ltpiq9K8EVX7JEzlwt5r-220" value="CENA" style="rounded=0;whiteSpace=wrap;html=1;" vertex="1" parent="1">
          <mxGeometry x="-462" y="883" width="120" height="60" as="geometry" />
        </mxCell>
        <mxCell id="Ltpiq9K8EVX7JEzlwt5r-221" value="" style="endArrow=none;html=1;rounded=0;fontSize=12;startSize=8;endSize=8;curved=1;entryX=0.25;entryY=1;entryDx=0;entryDy=0;" edge="1" parent="1" source="Ltpiq9K8EVX7JEzlwt5r-220" target="Ltpiq9K8EVX7JEzlwt5r-6">
          <mxGeometry width="50" height="50" relative="1" as="geometry">
            <mxPoint x="-50" y="814" as="sourcePoint" />
            <mxPoint y="764" as="targetPoint" />
            <Array as="points">
              <mxPoint x="71" y="765" />
            </Array>
          </mxGeometry>
        </mxCell>
        <mxCell id="Ltpiq9K8EVX7JEzlwt5r-222" value="má" style="edgeLabel;html=1;align=center;verticalAlign=middle;resizable=0;points=[];fontSize=12;" vertex="1" connectable="0" parent="Ltpiq9K8EVX7JEzlwt5r-221">
          <mxGeometry x="0.8925" y="-3" relative="1" as="geometry">
            <mxPoint as="offset" />
          </mxGeometry>
        </mxCell>
        <mxCell id="Ltpiq9K8EVX7JEzlwt5r-224" value="" style="endArrow=none;html=1;rounded=0;fontSize=12;startSize=8;endSize=8;curved=1;" edge="1" parent="1" source="Ltpiq9K8EVX7JEzlwt5r-220" target="Ltpiq9K8EVX7JEzlwt5r-182">
          <mxGeometry width="50" height="50" relative="1" as="geometry">
            <mxPoint x="-254" y="817" as="sourcePoint" />
            <mxPoint x="-204" y="767" as="targetPoint" />
            <Array as="points">
              <mxPoint x="-965" y="598" />
            </Array>
          </mxGeometry>
        </mxCell>
        <mxCell id="Ltpiq9K8EVX7JEzlwt5r-225" value="má" style="edgeLabel;html=1;align=center;verticalAlign=middle;resizable=0;points=[];fontSize=12;" vertex="1" connectable="0" parent="Ltpiq9K8EVX7JEzlwt5r-224">
          <mxGeometry x="0.9495" y="1" relative="1" as="geometry">
            <mxPoint as="offset" />
          </mxGeometry>
        </mxCell>
        <mxCell id="Ltpiq9K8EVX7JEzlwt5r-226" value="" style="endArrow=none;html=1;rounded=0;fontSize=12;startSize=8;endSize=8;curved=1;" edge="1" parent="1" source="Ltpiq9K8EVX7JEzlwt5r-220" target="Ltpiq9K8EVX7JEzlwt5r-59">
          <mxGeometry width="50" height="50" relative="1" as="geometry">
            <mxPoint x="-7" y="817" as="sourcePoint" />
            <mxPoint x="43" y="767" as="targetPoint" />
            <Array as="points">
              <mxPoint x="-192" y="270" />
            </Array>
          </mxGeometry>
        </mxCell>
        <mxCell id="Ltpiq9K8EVX7JEzlwt5r-227" value="mají" style="edgeLabel;html=1;align=center;verticalAlign=middle;resizable=0;points=[];fontSize=12;" vertex="1" connectable="0" parent="Ltpiq9K8EVX7JEzlwt5r-226">
          <mxGeometry x="0.7028" y="-34" relative="1" as="geometry">
            <mxPoint x="1" as="offset" />
          </mxGeometry>
        </mxCell>
        <mxCell id="Ltpiq9K8EVX7JEzlwt5r-233" value="ODŮVODNĚNÁ" style="rounded=0;whiteSpace=wrap;html=1;" vertex="1" parent="1">
          <mxGeometry x="1295" y="487" width="120" height="60" as="geometry" />
        </mxCell>
        <mxCell id="Ltpiq9K8EVX7JEzlwt5r-234" value="" style="endArrow=classic;html=1;rounded=0;fontSize=12;startSize=8;endSize=8;curved=1;" edge="1" parent="1" source="Ltpiq9K8EVX7JEzlwt5r-233" target="Ltpiq9K8EVX7JEzlwt5r-86">
          <mxGeometry width="50" height="50" relative="1" as="geometry">
            <mxPoint x="1112" y="481" as="sourcePoint" />
            <mxPoint x="1162" y="431" as="targetPoint" />
          </mxGeometry>
        </mxCell>
        <mxCell id="Ltpiq9K8EVX7JEzlwt5r-235" value="or" style="edgeLabel;html=1;align=center;verticalAlign=middle;resizable=0;points=[];fontSize=12;" vertex="1" connectable="0" parent="Ltpiq9K8EVX7JEzlwt5r-234">
          <mxGeometry x="0.2822" y="-4" relative="1" as="geometry">
            <mxPoint as="offset" />
          </mxGeometry>
        </mxCell>
        <mxCell id="Ltpiq9K8EVX7JEzlwt5r-237" value="" style="endArrow=none;html=1;rounded=0;fontSize=12;startSize=8;endSize=8;curved=1;" edge="1" parent="1" source="Ltpiq9K8EVX7JEzlwt5r-233" target="Ltpiq9K8EVX7JEzlwt5r-240">
          <mxGeometry width="50" height="50" relative="1" as="geometry">
            <mxPoint x="908" y="739" as="sourcePoint" />
            <mxPoint x="958" y="689" as="targetPoint" />
            <Array as="points">
              <mxPoint x="1536" y="718" />
              <mxPoint x="1625" y="1188" />
              <mxPoint x="893" y="1520" />
              <mxPoint x="33" y="1210" />
            </Array>
          </mxGeometry>
        </mxCell>
        <mxCell id="Ltpiq9K8EVX7JEzlwt5r-245" value="je" style="edgeLabel;html=1;align=center;verticalAlign=middle;resizable=0;points=[];fontSize=12;" vertex="1" connectable="0" parent="Ltpiq9K8EVX7JEzlwt5r-237">
          <mxGeometry x="-0.9708" y="-1" relative="1" as="geometry">
            <mxPoint x="-1" as="offset" />
          </mxGeometry>
        </mxCell>
        <mxCell id="Ltpiq9K8EVX7JEzlwt5r-238" value="ZA POPLATEK" style="rounded=0;whiteSpace=wrap;html=1;" vertex="1" parent="1">
          <mxGeometry x="-539" y="1022" width="120" height="60" as="geometry" />
        </mxCell>
        <mxCell id="Ltpiq9K8EVX7JEzlwt5r-240" value="ZDARMA" style="rounded=0;whiteSpace=wrap;html=1;" vertex="1" parent="1">
          <mxGeometry x="-342" y="1022" width="120" height="60" as="geometry" />
        </mxCell>
        <mxCell id="Ltpiq9K8EVX7JEzlwt5r-241" value="" style="endArrow=none;html=1;rounded=0;fontSize=12;startSize=8;endSize=8;curved=1;" edge="1" parent="1" source="Ltpiq9K8EVX7JEzlwt5r-238" target="Ltpiq9K8EVX7JEzlwt5r-212">
          <mxGeometry width="50" height="50" relative="1" as="geometry">
            <mxPoint x="148" y="943" as="sourcePoint" />
            <mxPoint x="198" y="893" as="targetPoint" />
            <Array as="points">
              <mxPoint x="125" y="1315" />
              <mxPoint x="755" y="1520" />
              <mxPoint x="1075" y="1505" />
              <mxPoint x="1610" y="1292" />
              <mxPoint x="1753" y="467" />
            </Array>
          </mxGeometry>
        </mxCell>
        <mxCell id="Ltpiq9K8EVX7JEzlwt5r-244" value="je" style="edgeLabel;html=1;align=center;verticalAlign=middle;resizable=0;points=[];fontSize=12;" vertex="1" connectable="0" parent="Ltpiq9K8EVX7JEzlwt5r-241">
          <mxGeometry x="0.9837" y="-3" relative="1" as="geometry">
            <mxPoint x="132" y="49" as="offset" />
          </mxGeometry>
        </mxCell>
        <mxCell id="Ltpiq9K8EVX7JEzlwt5r-249" value="or" style="edgeLabel;html=1;align=center;verticalAlign=middle;resizable=0;points=[];fontSize=12;" vertex="1" connectable="0" parent="Ltpiq9K8EVX7JEzlwt5r-241">
          <mxGeometry x="0.9831" y="1" relative="1" as="geometry">
            <mxPoint as="offset" />
          </mxGeometry>
        </mxCell>
        <mxCell id="Ltpiq9K8EVX7JEzlwt5r-242" value="" style="endArrow=classic;html=1;rounded=0;fontSize=12;startSize=8;endSize=8;curved=1;" edge="1" parent="1" source="Ltpiq9K8EVX7JEzlwt5r-238" target="Ltpiq9K8EVX7JEzlwt5r-220">
          <mxGeometry width="50" height="50" relative="1" as="geometry">
            <mxPoint x="-448" y="943" as="sourcePoint" />
            <mxPoint x="-398" y="893" as="targetPoint" />
          </mxGeometry>
        </mxCell>
        <mxCell id="Ltpiq9K8EVX7JEzlwt5r-243" value="" style="endArrow=classic;html=1;rounded=0;fontSize=12;startSize=8;endSize=8;curved=1;" edge="1" parent="1" source="Ltpiq9K8EVX7JEzlwt5r-240" target="Ltpiq9K8EVX7JEzlwt5r-220">
          <mxGeometry width="50" height="50" relative="1" as="geometry">
            <mxPoint x="-448" y="943" as="sourcePoint" />
            <mxPoint x="-398" y="893" as="targetPoint" />
          </mxGeometry>
        </mxCell>
        <mxCell id="Ltpiq9K8EVX7JEzlwt5r-246" value="" style="endArrow=none;html=1;rounded=0;fontSize=12;startSize=8;endSize=8;curved=1;" edge="1" parent="1" source="Ltpiq9K8EVX7JEzlwt5r-212" target="Ltpiq9K8EVX7JEzlwt5r-2">
          <mxGeometry width="50" height="50" relative="1" as="geometry">
            <mxPoint x="-355" y="386" as="sourcePoint" />
            <mxPoint x="-305" y="336" as="targetPoint" />
            <Array as="points">
              <mxPoint x="1758" y="182" />
              <mxPoint x="578" y="-280" />
              <mxPoint x="-532" y="-186" />
              <mxPoint x="-636" y="-34" />
              <mxPoint x="-574" y="174" />
            </Array>
          </mxGeometry>
        </mxCell>
        <mxCell id="Ltpiq9K8EVX7JEzlwt5r-247" value="odmítne" style="edgeLabel;html=1;align=center;verticalAlign=middle;resizable=0;points=[];fontSize=12;" vertex="1" connectable="0" parent="Ltpiq9K8EVX7JEzlwt5r-246">
          <mxGeometry x="0.9717" y="-2" relative="1" as="geometry">
            <mxPoint as="offset" />
          </mxGeometry>
        </mxCell>
        <mxCell id="Ltpiq9K8EVX7JEzlwt5r-248" value="or" style="edgeLabel;html=1;align=center;verticalAlign=middle;resizable=0;points=[];fontSize=12;" vertex="1" connectable="0" parent="Ltpiq9K8EVX7JEzlwt5r-246">
          <mxGeometry x="-0.9863" y="-1" relative="1" as="geometry">
            <mxPoint as="offset" />
          </mxGeometry>
        </mxCell>
        <mxCell id="Ltpiq9K8EVX7JEzlwt5r-257" value="DŮVODNÉ POCHYBNOSTI" style="rounded=0;whiteSpace=wrap;html=1;" vertex="1" parent="1">
          <mxGeometry x="161" y="-165" width="120" height="60" as="geometry" />
        </mxCell>
        <mxCell id="Ltpiq9K8EVX7JEzlwt5r-258" value="" style="endArrow=none;html=1;rounded=0;fontSize=12;startSize=8;endSize=8;curved=1;" edge="1" parent="1" source="Ltpiq9K8EVX7JEzlwt5r-2" target="Ltpiq9K8EVX7JEzlwt5r-257">
          <mxGeometry width="50" height="50" relative="1" as="geometry">
            <mxPoint x="13" y="77" as="sourcePoint" />
            <mxPoint x="63" y="27" as="targetPoint" />
          </mxGeometry>
        </mxCell>
        <mxCell id="Ltpiq9K8EVX7JEzlwt5r-259" value="má" style="edgeLabel;html=1;align=center;verticalAlign=middle;resizable=0;points=[];fontSize=12;" vertex="1" connectable="0" parent="Ltpiq9K8EVX7JEzlwt5r-258">
          <mxGeometry x="-0.4901" y="-2" relative="1" as="geometry">
            <mxPoint x="-8" y="1" as="offset" />
          </mxGeometry>
        </mxCell>
        <mxCell id="Ltpiq9K8EVX7JEzlwt5r-262" value="POŽADAVEK" style="rounded=0;whiteSpace=wrap;html=1;" vertex="1" parent="1">
          <mxGeometry x="161" y="-336" width="120" height="60" as="geometry" />
        </mxCell>
        <mxCell id="Ltpiq9K8EVX7JEzlwt5r-263" value="" style="endArrow=none;html=1;rounded=0;fontSize=12;startSize=8;endSize=8;curved=1;" edge="1" parent="1" source="Ltpiq9K8EVX7JEzlwt5r-257" target="Ltpiq9K8EVX7JEzlwt5r-262">
          <mxGeometry width="50" height="50" relative="1" as="geometry">
            <mxPoint x="340" y="-63" as="sourcePoint" />
            <mxPoint x="390" y="-113" as="targetPoint" />
          </mxGeometry>
        </mxCell>
        <mxCell id="Ltpiq9K8EVX7JEzlwt5r-264" value="na základě" style="edgeLabel;html=1;align=center;verticalAlign=middle;resizable=0;points=[];fontSize=12;" vertex="1" connectable="0" parent="Ltpiq9K8EVX7JEzlwt5r-263">
          <mxGeometry x="0.8178" y="1" relative="1" as="geometry">
            <mxPoint x="20" y="7" as="offset" />
          </mxGeometry>
        </mxCell>
        <mxCell id="Ltpiq9K8EVX7JEzlwt5r-265" value="FYZICKÁ OSOBA" style="rounded=0;whiteSpace=wrap;html=1;" vertex="1" parent="1">
          <mxGeometry x="-108" y="-165" width="120" height="60" as="geometry" />
        </mxCell>
        <mxCell id="Ltpiq9K8EVX7JEzlwt5r-266" value="" style="endArrow=classic;html=1;rounded=0;fontSize=12;startSize=8;endSize=8;curved=1;" edge="1" parent="1" source="Ltpiq9K8EVX7JEzlwt5r-265" target="Ltpiq9K8EVX7JEzlwt5r-1">
          <mxGeometry width="50" height="50" relative="1" as="geometry">
            <mxPoint x="98" y="-140" as="sourcePoint" />
            <mxPoint x="148" y="239" as="targetPoint" />
          </mxGeometry>
        </mxCell>
        <mxCell id="Ltpiq9K8EVX7JEzlwt5r-267" value="TOTOŽNOST" style="rounded=0;whiteSpace=wrap;html=1;" vertex="1" parent="1">
          <mxGeometry x="-108" y="-336" width="120" height="60" as="geometry" />
        </mxCell>
        <mxCell id="Ltpiq9K8EVX7JEzlwt5r-268" value="" style="endArrow=none;html=1;rounded=0;fontSize=12;startSize=8;endSize=8;curved=1;" edge="1" parent="1" source="Ltpiq9K8EVX7JEzlwt5r-265" target="Ltpiq9K8EVX7JEzlwt5r-267">
          <mxGeometry width="50" height="50" relative="1" as="geometry">
            <mxPoint x="-48" y="-144" as="sourcePoint" />
            <mxPoint x="148" y="239" as="targetPoint" />
          </mxGeometry>
        </mxCell>
        <mxCell id="Ltpiq9K8EVX7JEzlwt5r-269" value="koho" style="edgeLabel;html=1;align=center;verticalAlign=middle;resizable=0;points=[];fontSize=12;" vertex="1" connectable="0" parent="Ltpiq9K8EVX7JEzlwt5r-268">
          <mxGeometry x="0.5676" y="-1" relative="1" as="geometry">
            <mxPoint as="offset" />
          </mxGeometry>
        </mxCell>
        <mxCell id="Ltpiq9K8EVX7JEzlwt5r-270" value="" style="endArrow=none;html=1;rounded=0;fontSize=12;startSize=8;endSize=8;curved=1;" edge="1" parent="1" source="Ltpiq9K8EVX7JEzlwt5r-267" target="Ltpiq9K8EVX7JEzlwt5r-257">
          <mxGeometry width="50" height="50" relative="1" as="geometry">
            <mxPoint x="98" y="289" as="sourcePoint" />
            <mxPoint x="148" y="239" as="targetPoint" />
          </mxGeometry>
        </mxCell>
        <mxCell id="Ltpiq9K8EVX7JEzlwt5r-271" value="o" style="edgeLabel;html=1;align=center;verticalAlign=middle;resizable=0;points=[];fontSize=12;" vertex="1" connectable="0" parent="Ltpiq9K8EVX7JEzlwt5r-270">
          <mxGeometry x="0.6537" y="-1" relative="1" as="geometry">
            <mxPoint x="-1" as="offset" />
          </mxGeometry>
        </mxCell>
        <mxCell id="Ltpiq9K8EVX7JEzlwt5r-274" value="" style="endArrow=none;html=1;rounded=0;fontSize=12;startSize=8;endSize=8;curved=1;" edge="1" parent="1" source="Ltpiq9K8EVX7JEzlwt5r-2" target="Ltpiq9K8EVX7JEzlwt5r-262">
          <mxGeometry width="50" height="50" relative="1" as="geometry">
            <mxPoint x="135" y="194" as="sourcePoint" />
            <mxPoint x="185" y="144" as="targetPoint" />
          </mxGeometry>
        </mxCell>
        <mxCell id="Ltpiq9K8EVX7JEzlwt5r-275" value="vznese" style="edgeLabel;html=1;align=center;verticalAlign=middle;resizable=0;points=[];fontSize=12;" vertex="1" connectable="0" parent="Ltpiq9K8EVX7JEzlwt5r-274">
          <mxGeometry x="-0.4289" y="2" relative="1" as="geometry">
            <mxPoint x="-21" y="36" as="offset" />
          </mxGeometry>
        </mxCell>
        <mxCell id="Ltpiq9K8EVX7JEzlwt5r-276" value="NEZBYTNÉ DODATEČNÉ INFORMACE" style="rounded=0;whiteSpace=wrap;html=1;" vertex="1" parent="1">
          <mxGeometry x="-329" y="-336" width="120" height="60" as="geometry" />
        </mxCell>
        <mxCell id="Ltpiq9K8EVX7JEzlwt5r-277" value="" style="endArrow=none;html=1;rounded=0;fontSize=12;startSize=8;endSize=8;curved=1;" edge="1" parent="1" source="Ltpiq9K8EVX7JEzlwt5r-276" target="Ltpiq9K8EVX7JEzlwt5r-262">
          <mxGeometry width="50" height="50" relative="1" as="geometry">
            <mxPoint x="55" y="2" as="sourcePoint" />
            <mxPoint x="105" y="-48" as="targetPoint" />
            <Array as="points">
              <mxPoint x="-34" y="-415" />
            </Array>
          </mxGeometry>
        </mxCell>
        <mxCell id="Ltpiq9K8EVX7JEzlwt5r-278" value="na získání" style="edgeLabel;html=1;align=center;verticalAlign=middle;resizable=0;points=[];fontSize=12;" vertex="1" connectable="0" parent="Ltpiq9K8EVX7JEzlwt5r-277">
          <mxGeometry x="0.7661" y="-4" relative="1" as="geometry">
            <mxPoint x="1" as="offset" />
          </mxGeometry>
        </mxCell>
        <mxCell id="Ltpiq9K8EVX7JEzlwt5r-279" value="" style="endArrow=none;html=1;rounded=0;fontSize=12;startSize=8;endSize=8;curved=1;" edge="1" parent="1" source="Ltpiq9K8EVX7JEzlwt5r-276" target="Ltpiq9K8EVX7JEzlwt5r-265">
          <mxGeometry width="50" height="50" relative="1" as="geometry">
            <mxPoint x="55" y="2" as="sourcePoint" />
            <mxPoint x="105" y="-48" as="targetPoint" />
          </mxGeometry>
        </mxCell>
        <mxCell id="Ltpiq9K8EVX7JEzlwt5r-280" value="koho" style="edgeLabel;html=1;align=center;verticalAlign=middle;resizable=0;points=[];fontSize=12;" vertex="1" connectable="0" parent="Ltpiq9K8EVX7JEzlwt5r-279">
          <mxGeometry x="-0.7265" y="-3" relative="1" as="geometry">
            <mxPoint as="offset" />
          </mxGeometry>
        </mxCell>
        <mxCell id="Ltpiq9K8EVX7JEzlwt5r-281" value="" style="endArrow=none;html=1;rounded=0;fontSize=12;startSize=8;endSize=8;curved=1;" edge="1" parent="1" source="Ltpiq9K8EVX7JEzlwt5r-276" target="Ltpiq9K8EVX7JEzlwt5r-267">
          <mxGeometry width="50" height="50" relative="1" as="geometry">
            <mxPoint x="55" y="2" as="sourcePoint" />
            <mxPoint x="105" y="-48" as="targetPoint" />
          </mxGeometry>
        </mxCell>
        <mxCell id="Ltpiq9K8EVX7JEzlwt5r-282" value="pro ověření" style="edgeLabel;html=1;align=center;verticalAlign=middle;resizable=0;points=[];fontSize=12;" vertex="1" connectable="0" parent="Ltpiq9K8EVX7JEzlwt5r-281">
          <mxGeometry x="-0.6464" y="4" relative="1" as="geometry">
            <mxPoint x="18" as="offset" />
          </mxGeometry>
        </mxCell>
      </root>
    </mxGraphModel>
  </diagram>
</mxfile>
